<?xml version="1.0" encoding="utf-8"?>
<!DOCTYPE svg PUBLIC "-//W3C//DTD SVG 1.1//EN" "http://www.w3.org/Graphics/SVG/1.1/DTD/svg11.dtd">
<svg version="1.1" id="Layer_5" xmlns="http://www.w3.org/2000/svg" xmlns:xlink="http://www.w3.org/1999/xlink" x="0px" y="0px"
	 viewBox="464.4 -1249.7 2500 3000" style="enable-background:new 464.4 -1249.7 2500 3000;" xml:space="preserve">
<path id="saxony" d="M2714.6,99.4c-15.5,7.1-30.2,13.8-49.6,6.9c-18.3-6.5-31.4-5.5-65.6,17.8c-8.9,6-17.2,12.4-25.2,18.6
	c-23.4,17.9-43.6,33.5-63.2,28.4l-0.9-0.2c-21.2-5.4-34-8.7-68.5-4.8c-36.9,4.2-48.1-10.2-57.9-23c-0.9-1.1-1.7-2.3-2.6-3.4
	c-5.7-7.1-13.5-18.6-17.8-32.3c-6.3-14.8-27.4-13.5-38.7-12.8c-36.2,2.8-81.1,12.2-117.7,22.1c-35.1,9.5-47.8,24.2-52.3,32.1
	c-3.4,6-4.3,12.1-2.8,17.7c6.5,22.9,4.5,31.2-12.1,52.3c-5.6,7.1-7.9,13.2-7.1,18.5c0.9,6,6,12,15.3,18.4
	c8.4,5.7,13.7,12.2,16.7,18.8l0,0c2.5,4.7,3.7,16.6,14,22.8l0,0c8,2.3,16.1,3.2,23.5,4c12,1.3,22.4,2.5,29.1,9.5
	c7.3,7.5,13.8,19.5,10.5,30.6c-1.5,5.2-5.9,12-17.7,14.8c-31.1,7.3-47.7,19.4-50.8,37.3c-1.6,9.5-0.6,19.4,0.3,28.1
	c1.7,16.1,3.6,34.2-16.4,40c-11.2,3.3-21.3,1.9-29.4,0.8c-10.7-1.5-16-1.9-20.8,3.7c-9.1,10.5-8,22.1-6.8,34.3
	c0.2,2.4,0.5,4.9,0.6,7.3c0.4,6.5-0.2,11.6-1.4,15.7l0,0c1.2,3.1-0.8,6.9,2.3,13.5c0.3,0.6,0.6,1.2,1,1.8c3.4,1.3,7.9,2.5,11.7,3.5
	c9.8,2.6,20.8,5.6,29.5,12.2c14.1,10.7,19.3,21.5,27.2,37.9c1.7,3.6,3.6,7.6,5.8,12c6,12,12.9,19.6,23.2,29
	c20.9,1,23.2-18.3,27.7-36.1c4.4-17.8,8.9-20.8,24-42.5c15.1-21.8,55.1-24.2,84.8-25.7c29.7-1.5,56.6-12.9,70.5-25.5
	c13.9-12.6,19.8-26,45.3-29.2c25.5-3.2,32.9-5.2,43.8-20.3c10.9-15.1,11.9-22,27.7-25.7c15.8-3.7,23.3-9.6,28.4-16.8
	c5.2-7.2,15.8-5.9,20.5-11.1c4.7-5.2,21.8-14.3,38.3-19.3c16.6-4.9,26.2-2.5,40.8-9.4c14.6-6.9,42.5-12.6,46.7-29.9
	c4.2-17.3-9.6-28.9-9.9-30.7c-0.3-1.7,8.4-5.4,18.1-5.4c9.6,0,12.6-1.5,20.5,3.7c7.9,5.2,12.9,35.4,25.2,48.2
	c12.4,12.9,34.6,11.9,50.4-4.7c15.8-16.6,34.4-52.9,43-89c8.7-36.1,1.5-66.8-10.4-99.7c-11.9-32.9-37.8-44.3-47-53.7
	c-9.1-9.4-33.7-24.4-50.6-20.4c-3.4,1-6.5,2-9.2,3.1C2723.8,95.2,2719.1,97.3,2714.6,99.4z"/>
<path id="brandenburg" d="M2561.2-526c-9.3-11.7-1.1-22.6,3.7-29.2c2.7-3.7,5.6-7.5,4.8-9.6c-2.8-7.6-25-14.9-63.8-6.3c-19.7,4.4-32.2,3.5-41.3,2.8
	c-10.4-0.8-15.6-1.1-25.2,5.7c-6.3,4.5-10.8,11.8-15.9,20.3c-10.6,17.6-23.9,39.6-62.5,55.2c-26.8,10.8-58.8,15.3-91.3,15.3
	c-42.2,0-85.3-7.5-119.5-18.5c-63.5-20.4-70.8-17.6-93.1,11.7c-17,22.4-34.1,24.6-53.9,27.1c-11.8,1.5-25.3,3.2-41.4,9.7
	c-0.6,0.3-1.2,0.5-1.8,0.7c-6.3,7.1-11,7.2-7.9,17.8c2.5,8.6,10.8,15.9,15.8,20c5.3-0.3,12.8-0.6,24-0.3c32,0.7,46.8,7.3,63.4,27.9
	c10.4,13,16.9,12.8,34.2,12.3c3.5-0.1,7.5-0.2,11.8-0.2c33.7,0,43.9,21.2,49.4,42c5.5,20.9-1.6,37-9.2,54c-2,4.6-4.1,9.3-6.1,14.4
	c-2,5.1-3.9,9.5-5.6,13.3c-6.4,14.6-6.3,14.6-1.1,17.2c3.6,1.8,7,2.5,10.4,3.2c10.7,2.3,19.1,5.5,22.5,23.5
	c2.1,11.3-2.2,23.8-6.8,37.1c-5.3,15.3-10.8,31.1-7.2,46c6.6,27.3,27.1,47.2,56.4,54.8c16.7,4.3,30.6,9.8,42.8,14.7
	c11.4,4.5,21.2,8.4,31.3,10.7c4.6,1.1,8.7,2,12.3,2.8c4.8,1.1,8.7,1.9,11.9,2.7c8.4,2.1,15.6,7.2,20.4,14.6c5,7.8,10,10.7,16.4,14.4
	c5.1,2.9,10.8,6.2,16.9,12.3c7,7,12.3,15.6,15.7,25.1c5.7,8.9,8.1,24.5,6.7,41.2c-1.4,16.7,0.9,29.5,7.2,41.4l0,0.1
	c2.4,3.8,4.7,6.9,6.5,9.1c0.9,1.2,1.9,2.4,2.8,3.6c8.7,11.3,16.2,21,45.3,17.7c37-4.2,51.5-0.5,73.5,5.1l0.9,0.2
	c13.1,3.3,30.7-10.2,51.2-26c8.2-6.3,16.7-12.8,25.8-19.1c34.9-23.8,53.2-28.3,78.2-19.4c14,5,24.5,0.2,39.1-6.4
	c4.7-2.2,9.6-4.4,15-6.5c4.4-1.7,10.3-3.6,17.3-5.3c21.4-10,25.1-24.9,20.4-38.5c-4.7-13.6-25-19.8-26.5-34.9
	c-1.5-15.1,18.1-24.7,19.8-40.8c1.7-16.1-0.5-59.3-5.4-93.2c-4.9-33.9-27.2-32.6-40.8-42.8c-4.4-3.3-7.8-7.3-10-11.7
	c-3.6,9-7.8,18.3-12.9,27.9c-6.4,12.1-14.1,22.3-23,31c-8.9,8.7-18.8,15.7-29.5,21.4c-21.5,11.4-45.9,17.4-71.4,20.4
	c-17,2-34.5,2.7-52,2.7c-31.5,0-62.9-2.2-90.9-3c-19.2-0.5-34.4-1-47.1-2.1c-12.6-1.1-22.7-2.7-31.5-5.6c-5.8-1.9-11.1-4.5-15.9-7.7
	c-6.5-4.3-12.1-9.7-17.8-16.5c-7.6-9-15.5-20.3-26-35c-9.2-13-15.5-24.3-20.2-34.2c-4.7-9.9-7.7-18.4-10.5-25.8
	c-1.9-4.9-3.6-9.3-5.7-13.4c-2.7-5.4-5.9-10.3-10.6-15.3c-2.7-2.9-6-5.8-10-8.8c-4.5-3.4-10-7-16.8-10.9c-4-1.8-7.9-3.9-11.5-6.5
	l-0.2-0.1l0,0c-7.2-5.1-13.6-11.9-18.6-20c-7.7-12.4-12.2-28-12.2-46.2c0-20.9,6-45.1,19.9-71.9c8.2-15.8,18.2-27.9,30-37
	c11.8-9.1,25.3-15,40.3-18.8c10-2.6,20.6-4.3,31.9-5.4c15.1-1.5,31.4-2.1,49.1-2.4c23.6-0.4,49.6-0.4,78.3-1.6
	c7.8-0.3,15.4-0.5,22.8-0.5c38.5,0,71,4.5,99.5,13.5c28.5,9,52.8,22.5,74.9,40c3.3,2.7,6.6,5.4,9.9,8.2
	c11.2-13.3,23.2-27.1,27.5-39.6c8.4-24.5-4.4-31.2-6.4-46.2c-2-15.1-21.3-23-34.3-27.4c-7.6,0.3-14.1,1.4-19.5,2.3
	C2577.1-519.4,2567.8-517.8,2561.2-526z"/>
<path id="mecklenburg-vorpommern" d="M1863.6-641.7c0,4.3-0.2,8.7-0.6,13c-3.8,39.2-19.4,78.9-42.2,114.8c-2.4,3.8-4.9,7.5-7.5,11.1c3.2,0.4,6.6,0.8,10.2,1.1
	c33.7,2.7,40.5,10.4,53.8,29.1c1.2,1.7,2.5,3.5,3.9,5.4c16.2,22.2,40.9,26.3,75.5,12.3c17.8-7.2,32.2-9,44.8-10.6
	c18.7-2.4,31.1-3.9,44.5-21.7c27.3-36,41.5-38.1,108.5-16.6c58.2,18.7,143.1,27.1,201.3,3.6c34.3-13.8,45.7-32.8,55.8-49.4
	c5.7-9.4,11.1-18.3,19.8-24.5c13.7-9.8,23.3-9.1,34.3-8.3c8.7,0.6,19.6,1.4,37.3-2.5c41.2-9.2,73.4-3.1,80,15.2
	c3.3,9.1-2.3,16.7-6.8,22.7c-5.8,7.8-6,9.5-4,12.1c1.3,1.6,5,1.1,13.4-0.3c8.8-1.5,20.6-3.5,36-2.2c14.8-1.2,12.3-5.7,17-15.4
	c4.7-9.6-1.5-51.9-15.8-82.6c-14.3-30.7-36.6-39.3-60.3-41.3c-23.7-2-41.5-12.4-41.5-12.4s13.4-3.7,36.1-6.9
	c22.8-3.2,39.8-16.1,40.6-37.6c0.7-21.5-14.1-52.2-42.8-74.9c-28.7-22.7-70-21.8-97.2-11.9c-27.2,9.9-46.2,11.6-52.9,1.5
	c-6.7-10.1-0.7-27.7,18.5-30.9c19.3-3.2,40.8-7.9,43.5-24c2.7-16.1,4-63.8-1.7-82.3c-5.7-18.5-34.9-42.8-70.5-49.2
	c-35.6-6.4-61.1,17.8-75.7,41.8c-14.6,24-32.4,47.7-42.5,51.4c-10.1,3.7-29.7-6.7-63.3-13.6c-33.6-6.9-46.2-0.3-59.8,23.5
	c-13.6,23.7-19.8,38.6-40.3,53.4c-20.5,14.8-58.6,23-98.4,35.6c-39.8,12.6-49.9,23.2-60.8,42c-10.9,18.8-20.3,23.7-49.2,16.6
	c-23.9-5.9-62.2,1.2-80,7.9c7.7,10.2,14.5,20.9,20.2,31.9C1856.5-691.6,1863.6-667.1,1863.6-641.7z"/>
<path id="bavaria" d="M2164.4,610.6c-2.2-4.5-4.2-8.6-5.9-12.2c-7.4-15.6-11.6-24.2-23-32.8c-6.5-4.9-16.2-7.5-24.7-9.8c-1.1-0.3-2.3-0.6-3.3-0.9
	c-6.9-0.2-15.2-1.3-20.9-5.9c-11-8.8-9.1-14.8-23.4-16.3c-5.2,0.4-11.3,1.1-18.4,1.8c-13.4,1.4-30.1,3.1-47.8,4.2
	c-14.4,0.9-23.9-1.9-29.1-8.7c-6.8-8.7-4-21.1-1.3-29.7c2.7-8.4,1.9-11.5,1.2-12.5c-0.9-1.4-4.3-3.3-14.6-4.2
	c-10.1-0.9-18.3,1.4-22.7,6.1c-3.5,3.8-4.6,9.4-3.3,16.6c0.7,4.2,1.6,8.3,2.4,12.2c4,19.4,7.8,37.7-8.9,46.8
	c-11.3,6.2-22.4,0.7-33.2-4.6c-7.7-3.8-15.6-7.8-24.2-8.1c-4.3-0.2-8.9-0.4-13.8-0.7c-11.7-0.6-32.1-1.7-40.4-0.2
	c1.3,2,3.3,4.5,4.8,6.4c7.4,9.5,17.5,22.5,10.1,33.7c-5.1,7.8-14.4,12.5-24.9,12.6c-12.9,0.1-25.1-6.8-33.3-18.8
	c-14-20.6-20.4-29.9-37.4-36.4c-17.3-6.5-25.3-18.3-35.4-33.2c-2.6-3.8-5.3-7.8-8.4-12.1c-15.5-21.3-40.1-11.5-54.6-2.7
	c-3.2,7.7-6.9,14.4-9.9,19.9c-2,3.6-3.7,6.6-4.6,8.8c-3.4,8.2-12.9,10.5-23.9,13.2c-9.6,2.4-20.6,5.1-29.9,11.8
	c-9.6,6.9-10.3,13.2-11.2,20.6c-0.8,6.1-1.6,13-7.5,19.2c-5,5.2-13,9-21.5,13c-9.4,4.4-21.1,9.9-22.3,15.6c-0.5,2.6-0.9,5-1.3,7.4
	c-1.8,11.5-3.6,23.3-21.4,30.9c-10,4.2-22.1,2-34.9-0.4c-13.2-2.4-26.8-4.9-38.4-0.7c-18.3,6.8-22.7,21.2-16.4,53.1
	c2.6,13,7.4,20.4,12.1,27.6c5.3,8,10.7,16.3,11.2,30.3c0.4,11.4,0,21-0.7,29.6c1.1,18.2,8.3,24.8,21,22h0c9.1-4.6,16.3-8.7,22-14.2
	c3.8-3.6,3.2-6.7-0.9-16.2c-3.5-8.1-7.8-18.1-1.1-28.1c7.6-11.5,24.8-14.4,34.3-15.1c14.1-1.1,28.1,1.3,35.4,6.1
	c7,4.6,10.7,11,14.1,16.8c3.7,6.3,5.9,10,10.3,11c3.4,0.8,8-0.5,12.8-1.9c9.1-2.6,22.9-6.5,32.5,7.4c5.4,7.9,7.1,19.9,8.9,32.6
	c1.8,12.6,4,28.4,10.1,30.2c6.3,1.9,17.7-1.6,27.7-4.7c14.7-4.5,29.9-9.2,36.8,1.6c6,9.4,0.4,22.9-6.7,39.9
	c-5.1,12.2-10.8,26-11.7,38c-1.2,15.5,10.3,28.2,21.3,40.5c6.3,7,12.2,13.5,15.4,20.4c3,6.4,4.1,12.9,5,18.6
	c1.9,11.5,3.3,19.9,17.9,27.5c28,14.6,33.1,23,31.9,52.5c-0.5,11.8,2.1,22.2,4.3,31.4c2.8,11.2,5.1,20.9,0.9,29.4
	c-8.4,16.9-21.3,16.2-41.5,13c-5.4-0.8-7.7-0.5-8.5-0.3c-0.4,2.3,1.4,8.8,2.8,13.7c5.8,21.2-2.6,39.6-22.6,49.4
	c-7.3,3.5-14.6,4.3-21.2,5c-12.5,1.4-20.8,2.3-26.7,19.6c-7.4,21.9-0.6,40.7,7.4,62.5c2.7,7.4,5.4,15,7.9,23.2
	c10,33.9,6.1,51.6,0,71.2c-5.6,18-6.9,52.2,6.5,93.8c5,15.7,15.4,40.8,26.3,67.5c10.8,26.4,22.4,54.7,31.4,79.7
	c31.4-17.3,46.9-69.7,65.3-80.4c19.7-11.5,31.7,3.8,43.7,23.5c12,19.7,16.3,23,50.9,28.3c34.5,5.3,47,18.7,90.2,13.9
	c43.2-4.8,54.7-36.9,91.6-62.8c36.9-25.9,83.5-26.4,114.7-16.8c31.2,9.6,35,4.3,45.9-14.9c10.8-19.2,19.9-28.3,32.8-13.4
	c13,14.9,16.8,13.4,39.8,4.3c23-9.1,34.1-6.7,34.1-6.7s1.4,3.4,4.8,15.8c3.4,12.5,18.2,20.2,42.7,23.5s55.6,2.9,71.5-23.5
	c15.8-26.4-11.5-47-24.5-72c-13-24.9-3.4-38.9-27.4-60s-29.7-20.2-41.7-66.7c3.4-10.1,41.3-38.4,103.2-62.4
	c61.9-24,54.2-47.5,48.5-90.2c12.5-5.3,61.9,11,88.8-7.2c26.9-18.2,9.6-43.2,5.8-54.7c-3.8-11.5,8.1-14.4,13.4-25
	c5.3-10.6,2.9-41.3-22.6-65.3c-25.4-24-74.4-4.3-85.4-12.5c-11-8.2-22.5-48.9-35.1-57.3c-12.6-8.4-32.4-13.6-55.9-35.4
	c-23.5-21.8-61.1-29.7-86.8-42.3c-25.7-12.6-54.7-44-56.9-71c-2.2-27-5.2-59.3-7.9-85.1c-2.7-25.7-17.3-38.6-38.8-61.8
	c-5.8-5.3-11.1-9.8-15.8-14C2184.9,638.7,2173.6,628.9,2164.4,610.6z"/>
<path id="saxony-anhalt" d="M2353.9,34.2c-2.2-3.8-4.9-7.2-7.9-10.2c-4.8-4.8-9.2-7.3-14-10.1c-7.1-4.1-14.4-8.3-21.2-18.9c-2.8-4.3-7-7.3-11.9-8.5
	c-3.1-0.8-6.9-1.6-11.6-2.7c-3.6-0.8-7.7-1.7-12.3-2.8c-11.1-2.5-21.9-6.8-33.3-11.4c-12.5-4.9-25.3-10.1-41.2-14.2
	c-34.4-8.9-58.7-32.6-66.5-65.1c-4.6-19,1.9-37.6,7.6-53.9c4-11.4,7.8-22.3,6.3-29.9c-1.9-10.3-4.2-10.8-11.7-12.4
	c-3.8-0.8-8.4-1.8-13.6-4.3c-2.9-1.4-11.9-5.8-11.7-16.2c0.1-5.5,2.6-11.2,6.2-19.2c1.6-3.7,3.5-7.9,5.4-12.8
	c2.1-5.3,4.3-10.2,6.4-14.9c7.4-16.6,12.7-28.6,8.5-44.7c-6.2-23.3-15.6-31.6-35.9-31.6c-4.2,0-8,0.1-11.4,0.2
	c-18.5,0.5-30.7,0.9-45.5-17.5c-13.8-17.2-25.2-22.1-52.8-22.7c-2.9-0.1-5.6-0.1-8-0.1h0l0,0c-0.9,0-21.1,2.9-30.9,10.3
	c-3,7.8-7.4,15.3-15.1,19.1c-6.9,3.5-15.2,3.3-24.7-0.4c-23.3-9.2-30.2-5.2-37.9,7.9c-7.8,13.2-19.5,12.9-29.9,12.7
	c-7.4-0.2-15.1-0.4-23,3.9c-10.6,5.7-21.3,21,8.3,88.2c23.2,52.7,42.8,107.8,29.8,153.6c-12.8,45-23.4,49.5-58.4,58.1
	c-16.5,4.1-27.7,8.3-32.7,16.6c-4.6,7.9-4.4,20.4,0.6,39.4c11.9,44.8,27,69.9,47.3,79.2c24.5,11.2,27,26.6,30.2,46.2
	c0.2,1.5,0.5,3,0.7,4.5c2.6,15.7,17.4,23.8,60.8,33.1c31.5,6.8,49.6,15.7,55.2,27.3c2.6,5.4,2.6,11.2-0.1,16.8
	c-1.6,3.3-4,6.7-6.5,10.3c-9.2,12.9-14.1,21.6-4.3,33.3c4.9,5.8,7.1,5,15.4,2.1c5.4-1.9,12.2-4.4,20.9-4.4c9.4,0,21,2.8,35.6,12.2
	c20.9,13.5,33.2,23.1,42.2,30.2c10.1,8,15.2,12,23.7,14.4c6.4,1.8,12.8,4.6,18.4,7c7.8,3.4,17.6,7.6,20.5,5.4
	c4.7-3.4,9.9-14.1,14.1-23.1c0,0,0.1-0.1,0.1-0.3c0.6-1.4,3.1-7.5,5.1-17.8c2.3-11.8-1.5-22.8-11.5-31c-11-8-17.1-16.5-18.5-25.9
	c-1.5-9.3,1.9-19.2,9.9-29.4c14.4-18.3,14.6-22,9.6-39.8c-2.6-9.3-1.2-19.1,4.1-28.4c9.6-16.9,31.2-30.6,60.8-38.7
	c42.1-11.4,94.9-22.1,134.6-23.3C2360.6,76.7,2361.4,55.6,2353.9,34.2z"/>
<path id="thuringia" d="M2157.7,317.5c-5.5,12-11.7,25.5-19.9,31.4c-3.2,2.3-6.7,3.2-10.5,3.2c-7.3,0-15.4-3.5-23.8-7.2c-5.5-2.4-11.1-4.8-16.7-6.4
	c-11.1-3.2-17.7-8.4-28.5-16.9c-8.8-6.9-20.7-16.3-41.1-29.5c-22.2-14.3-33.9-10.1-44.2-6.5c-8.8,3.1-19.7,7-30.8-6.3
	c-17.4-20.9-4.2-39.4,3.7-50.4c2.2-3,4.2-5.9,5.3-8.2c1.1-2.2,0.7-3.5,0.2-4.6c-1.3-2.6-8.3-11.8-45.6-19.8
	c-37.7-8.1-67-16.5-71.6-44.5c-0.3-1.6-0.5-3.1-0.8-4.6c-3-18.4-4.4-27.6-22.1-35.7c-0.5-0.2-0.9-0.4-1.4-0.6
	c-7.2-2.2-22.2-3.5-38.6,3.6c-5.8,8-13.7,14.5-23.9,18.3c-5.6,2.1-11.3,4.1-17,6.2c-19.6,7.1-39.9,14.5-63.4,24.6
	c-9.2,3.9-16.4,7.5-22.1,11c-8.9,9.8-22.9,26.1-17.2,40.2h0c3.5,6.2,11.4,13.1,27.6,19.7c16.3,6.7,27.1,16,31.2,26.8
	c2.9,7.8,2.4,16.2-1.6,24.5c-9.2,18.8-47.8,84.9-68.2,114.5c-21.2,30.8-19.5,40.1-14.9,45c1.7,1.8,6.2,2.6,10.7,3.3
	c6.7,1.1,16.5,2.7,21.4,10.5c7.9,12.2,13.3,17.8,24.5,17.9c0.8,0,1.6,0,2.3,0l0.2,0l0,0c14.1,0.1,26.3,6.3,35.1,18.5
	c3.3,4.5,6.1,8.7,8.7,12.4c9.8,14.3,15.7,23,28.8,27.9c21.1,8,29.3,19.9,44,41.6c5.5,8.1,13.3,12.7,21.4,12.7h0.2
	c5.8,0,10.9-2.4,13.4-6.3c1.8-2.8-6.1-13-9.5-17.4c-6.5-8.4-12.7-16.3-7.1-23.4c5.8-7.2,21-7.2,54.5-5.4c4.8,0.3,9.4,0.5,13.6,0.7
	c11.6,0.4,21.3,5.3,29.9,9.5c9.5,4.7,15.6,7.5,20.3,4.9c6.9-3.8,6-12.1,1.9-31.7c-0.8-4.1-1.7-8.2-2.5-12.6
	c-2.6-14.7,2.3-23.6,6.8-28.5c7.3-8,19.8-11.8,34.2-10.6c9.5,0.8,19.9,2.7,25,10.4c5,7.5,2.9,17,0.5,24.5c-3.4,10.7-2.4,15-1,16.8
	c2.1,2.7,8.2,3.9,17.2,3.3c17.4-1.1,34-2.8,47.3-4.1c7.2-0.7,13.4-1.3,18.7-1.8c3.1-0.3,5.9-0.3,8.6-0.1h0.1
	c17.5,0,15.4-8.2,15.8-15.1v0c-0.1-0.6-0.1-1.1-0.2-1.7c-1.3-13.3-2.9-29.7,10.1-44.8c10-11.6,22.4-9.9,33.3-8.4
	c7.5,1,15.3,2.1,23.6-0.3c7.7-2.2,8.2-7.1,6.4-25.1c-1-9.6-2.2-20.6-0.2-32c6.2-35.6,47.7-45.3,61.4-48.5c4.2-1,6.7-2.7,7.5-5.2
	c1.2-4.2-1.8-11.3-7.2-17c-3.2-3.3-11.3-4.2-20.6-5.3c-9.8-1.1-21.3-2.4-33-7C2164.6,309.9,2161.2,312.7,2157.7,317.5z"/>
<path id="lower-saxony" d="M1066.3-210.6c17.1-1.2,33.3,4,48,15.4c27,20.8,26,47.1,25.2,68.2l-0.1,2.5c-0.1,1.9-0.1,3.7-0.2,5.5
	c-0.4,9.4-0.7,18.3-0.1,25.1c0.7,8.1,2.6,9.5,2.8,9.6c5.8,3.6,39.9,5.8,73.3-15.4c14.9-9.5,24.1-19.7,27.1-30.4
	c2.4-8.4,1.3-17.4-3.4-27.6c-5.1-11.2-10.4-25.6-5.3-38.5c2.2-5.4,6-10.1,11.4-14c-2.2-2.6-4.4-5.2-6.5-8
	c-9.6-13.2-17.2-23.7-23.3-32.4c-6.1-8.7-10.6-15.6-13.9-21.7c-2.2-4.1-3.9-7.8-5.1-11.5c-1.6-4.9-2.3-9.7-2.3-14.5
	c0-5.5,0.8-11.1,2-17.6c1.1-6.6,2.6-14.2,4.1-24c3-19.6,5.9-48.1,5.9-93c0-8.6-0.1-17.8-0.4-27.7l0,0c0-0.8,0-1.5,0-2.3
	c0-9.1,1.3-18.2,3.9-26.9h0c4.1-13.8,11.3-35.6,22.5-58.8c11.2-23.1,26.2-47.7,46.1-67.1c13.3-12.9,28.8-23.5,46.7-29.6
	c10.3-3.4,21.3-5.4,33-5.4c10.8,0,22.2,1.6,34.2,5.1c6.5,1.9,13.1,4.3,19.9,7.4c-0.2-9.8-0.3-20.5-0.3-32.4c0-6.4,0-13.2,0-20.3
	c-0.1,0-0.2,0-0.3-0.1c-26.4-4.8-37.2-8.9-68.5-26.1l-0.2-0.1c-26.7-13.6-57.3,1.5-70.8,29.8c-13.6,28.4-7.7,59.3-15.8,62.1
	c-8.2,2.7-21-4.4-35.4,7.7c-14.3,12.1-11.6,28.9-11.9,40.6c-0.2,11.6-2,8.7-12.4,3.7c8.6-31.1,7.5-52.1-22.3-65.4
	c-29.7-13.3-86.8-15.2-126.6-12.4c-39.8,2.8-71.1,3.2-101.3,31.3c-30.2,28.1-35.8,61.5-28.9,76.8c6.8,15.3,29.8,18.9,40.2,26.9
	c10.4,8,8.8,74.8,5.6,102.5c-3.2,27.7-25.3,91.2-31.8,106.1c-6.4,14.9-23.7,37.4-39,33c-15.3-4.4-41.8-25.7-57.9-7.6
	c-16.1,18.1-23.3,60.7-8.9,75.2c14.5,14.5,38.2,19.3,59.9,15.7c21.7-3.6,20.9,2.4,22.5,8.4c1.6,6-6.3,33.9,11.2,32.3
	c34.6-4.3,57.9-12.3,86.1-33.5C1027.4-200.7,1047.4-209.4,1066.3-210.6z"/>
<path id="lower-saxony" d="M1481.1-3.8c9.8,3.5,28,18.2,41.4,36.5c12.6,17.2,26,44.1,18.7,74.9c-5.3,22.4-12.2,41.9-17.8,57.5
	c-5.5,15.6-11.8,33.2-9.3,37.3c1.8,3,5.7,5.2,10.8,6.2c9.5,1.9,20.6-1.1,29.7-7.8c2.6-2,5.4-4.1,8.3-6.4
	c13-10.2,28.1-22.1,44.8-23.6c12.3-1.8,22.7-4.9,32.3-9.3c3-1.8,6.3-3.5,9.8-5.2c3.6-1.8,7.5-3.5,11.7-5.3
	c23.9-10.3,44.4-17.7,64.2-24.9c5.7-2.1,11.3-4.1,16.9-6.2c9.7-3.6,16.6-10.8,21.2-19.5l0-0.1c10.2-21.6,2.4-45.7,1-49.4
	c-0.1-0.3-0.2-0.4-0.2-0.5v0c-3-8.2-5.8-17.1-8.4-27c-6.2-23.2-5.9-38.7,0.9-50.1c7.4-12.6,21.3-18.1,41.4-23.1
	c31.5-7.8,37.2-9.2,48.3-48.4c11.8-41.6-7-93.8-29.2-144.2c-17.8-40.4-34-89-2.1-106.2c11.2-6,21.6-5.7,30-5.5
	c10.5,0.3,14.1-0.2,17.4-5.8c12.4-21.1,27.3-24.8,55.1-13.8c5.6,2.2,10,2.5,13.2,0.9c5-2.5,8-10,10.2-17.2
	c0.1-4.6-0.4-10.2-2.1-15.1c-3.4-9.6-14.4-22.1-26.1-27.9c-17.7-1.8-32.2-10.4-43.5-25.9c-1.4-2-2.8-3.8-4-5.6
	c-11.5-16.1-15-21-43.6-23.3c-6.5-0.5-12.6-1.2-18.3-2.3c-20.1,26.1-43.9,49.2-69.8,67.3c-22.4,15.6-46.3,27.3-70.6,33.7
	c-19.4,5.1-37.4,7.7-54.2,7.7c-16.9,0-32.7-2.6-47.5-7.8c1.4,18.3,1.7,35.6,1.7,51.3c0,19.7-0.6,36.8-0.6,49.9
	c0,6.3,0.1,11.7,0.5,15.8l0,0c0.1,0.8,0.1,1.5,0.1,2.3c0,2.7-0.4,5.3-1.1,7.9c-0.7,2.6-1.8,5.1-3.1,7.7c-2.7,5-6.4,9.9-10.9,14.7
	c-9.1,9.6-21.7,19-36.7,27.8c-10,5.9-21.1,11.5-33,16.6c-11.9,5.1-24.6,9.8-37.8,13.7c0.1,15.7-11.3,33.8-23.2,52.7l-1.8,2.8
	c-11,17.4-7.9,29.6,10.4,42.3c18.8,13,24.7,25.2,24.3,50.3C1450.3-16.3,1463.6-10.1,1481.1-3.8z"/>
<path id="schleswig-holstein" d="M1411.8-715.2c0-41.6,22.3-80,58.4-100.6c21.3-12.1,46.9-25.2,73.8-35.2c26.9-10,55-17.1,81.6-17.2
	c13.4,0,26.4,1.8,38.5,6.1c33.5,11.8,69.7,31.6,102,56.9c18,14.1,34.7,29.9,49.1,47.1c2.9-1.7,5.9-3.3,9-4.9l0.1,0
	c12.8-7.3,30.3-24.2,44.4-47.9c14.1-23.7,11.6-29.2,12.1-51.2c0.5-22,14.3-19.3,31.2-28.9c16.8-9.6,20.3-32.6,10.9-47
	c-9.4-14.3-36.1-23.2-57.9-17.3c-21.8,5.9-23.5,37.8-29.7,51.2c-6.2,13.4-31.9,31.2-53.2,29.9c-21.3-1.2-31.9-12.8-63.8-27.9
	c-31.9-15.1-48.5-9.6-57.4-1c-8.9,8.7-23.7,1.5-32.6-5.2c-8.9-6.7-0.3-17.1,4.9-27c5.2-9.9,4.9-25.5-2.2-58.1
	c-7.2-32.6-18.8-33.9-46-46c-27.2-12.1-56.1-22-82.8-11.4c-26.7,10.6-34.9,13.4-57.9,2c-23-11.4-44.8-14.6-64.5-21
	c-19.8-6.4-48.2-8.9-60.3-7.2c-12.1,1.7-29.7,14.4-30.4,37.6s25.5,36.1,34.1,44.5c8.7,8.4,5.7,13.3,12.1,26.2
	c6.4,12.9,13.4,31.4-11.9,58.6c-25.2,27.2-35.6,42-39.3,62.3c-3.7,20.3,7.7,32.2,23,38.8c15.3,6.7,27.2,1,30.4,21.8
	c3.2,20.8,4.7,49,12.4,58c30.4,16.7,39.6,19.9,61.9,24.1C1411.8-708.4,1411.8-711.8,1411.8-715.2z"/>
<path id="baden-württemberg" d="M1642.2,1502.3c-18.1-56.3-9.6-92.5-6.5-102.3c5.6-17.9,8.9-32.9,0-63.1c-2.3-7.8-5-15.2-7.6-22.3
	c-8.5-23.3-16.5-45.2-7.5-71.8c8.8-25.8,25.2-27.6,38.4-29c5.9-0.6,11.5-1.3,16.6-3.7c18.7-9.1,17.6-24.6,15.3-33
	c-3-11-5.6-20.4,0.1-26.8c5.2-5.8,14.1-5.3,21.2-4.2c21.3,3.4,23.4,1.4,26.8-5.4c1.9-3.9,0.1-11.3-2-19.8
	c-2.4-9.6-5.3-21.5-4.7-35.3c1-23.3-0.3-27-24.4-39.5c-20.8-10.8-23.1-25-25.2-37.6c-0.9-5.3-1.7-10.3-3.9-14.9
	c-2.3-5-7.6-10.8-13.1-17c-11.8-13.1-26.5-29.5-24.9-51c1.1-14.2,7.3-29.2,12.8-42.3c3.9-9.4,9.8-23.6,7.8-27
	c-2.7-1.5-14.5,2.2-20.9,4.2c-12.5,3.8-25.5,7.8-35.9,4.7c-14.7-4.5-17.4-23.4-19.9-41.7c-1.5-10.5-3-21.4-6.5-26.6
	c-3.4-4.9-6.7-4.8-17.2-1.9c-6.1,1.7-12.9,3.7-19.9,2c-10.4-2.5-15-10.5-19.1-17.6c-2.8-4.8-5.4-9.3-9.6-12
	c-9.8-6.4-43.3-5.8-50.5,5.1c-2.2,3.3-0.9,7.3,2.3,14.8c3.6,8.4,9,21-2.2,31.8c-9.1,8.7-20.3,14.2-34.5,21.1
	c-10.4,5-23.2,11.3-38.7,20.5c-1,1.1-2,2.2-3.1,3.4c-2.6,2.8-5.6,6.6-8.7,10.6c-10.4,13.4-23.4,30-40.8,31c-2.4,0.1-4.6,0.2-6.7,0.2
	c-12.8,0-19.9-2.8-22.7-8.8c-3.9-8.4,4-16.5,6.6-19.1c8.5-8.8,11.2-15.6,11-18.8c-0.1-0.8-0.3-1.1-0.5-1.3c-1.2-0.3-4.8,0.3-7,0.7
	c-6.6,1.2-16.5,2.9-23.2-4.8c-4.5-5.2-4.7-12.7-4.9-19.3c0-1.4-0.1-3.2-0.2-4.8c-0.1-1.7-0.3-3.2-0.7-4c-0.3,0-0.9,0-1.7,0.2
	c-6.8,1.5-10.5,8.3-14.1,14.8c-3.6,6.6-7.4,13.5-14.9,14.7c-4,0.6-9.2,0.2-14.2-0.6c-0.2,0-0.5-0.1-0.8-0.1l-0.1,0h0
	c-0.4-0.1-0.9-0.2-1.3-0.2l-0.1,0c-8.6-1.3-12.9,4.3-14,8.5l0,0c-0.3,3.7,0.2,7.5,1.4,11.4c0.5,1.8,3.4,5.8,6,9.4
	c8.3,11.6,20.9,29.2,17.6,51.1c-4.2,27.9-26.3,79.6-62.2,107.5c-9.9,7.7-19.4,13.5-28.5,17.5v0c-12,10.2-18.6,5.6-33.1,28.2
	c-14.5,22.7-39.8,34.1-58.1,64.8c-18.2,30.7-29.8,90.2-59.5,146.3c-29.8,56.1-23.5,96.9-21.6,112.7c1.9,15.8-5.8,17.8-12,36.5
	c-6.2,18.7-14.9,63.8-6.2,90.7c8.6,26.9,39.8,37.4,90.7,33.6c50.9-3.8,88.8-8.6,130-7.2c41.3,1.4,46.5-11,50.9-31.7
	c4.3-20.6-4.3-41.3,32.1-47s37.9,27.8,56.6,33.1c18.7,5.3,48,1,71.5,10.1c23.5,9.1,57.1,29.7,91.1,47.5s43.2,12.5,85.4,2.9
	c42.2-9.6,47.5,38.9,62.4,51.3c14,11.7,27.5,27.6,58.9,18.8c-9.1-25.3-20.9-54-31.3-79.5C1657.8,1543.9,1647.4,1518.5,1642.2,1502.3
	z"/>
<path id="hesse" d="M1610.1,462.6c-6.5-1-13.8-2.2-18.7-7.6c-13.9-15.1-4.6-35.9,13.7-62.4c20.1-29.2,58.1-94.3,67.1-112.7
	c2.4-4.8,2.7-9.2,1.1-13.3c-2.7-7.1-11-13.7-23.4-18.8c-27-11.1-40-26.2-38.7-44.9c-0.1-1.1,0.1-2.5,0.5-4.2
	c0.2-0.9,0.3-1.8,0.5-2.6v0c0.9-6.7-2-10.7-7.3-10.6c-10.2,2.3-20.9,10.1-33.5,20c-3,2.3-5.8,4.5-8.6,6.6
	c-9.7,7.2-21.3,11.1-32.3,11.1c-2.9,0-5.7-0.3-8.4-0.8c-9-1.7-16.1-6.2-20-12.6c-6-9.8-0.7-24.7,8.1-49.3
	c5.4-15.3,12.2-34.4,17.4-56.1c6.1-25.5-5.6-48.6-16.4-63.4c-4.5-6.2-9.3-11.6-14-16.1c-25,8.2-42,38.3-38.7,59
	c1.1,6.9,2.7,13.7,4.3,20.3c4.4,18.6,8.5,36.1-1,49.4c-4.9,6.8-11.6,10.9-19.2,11.8c-11,1.2-23.4-4-35.9-15.1
	c-9.3-8.2-18.9-12.3-25.7-10.9c-4.1,0.8-7.3,3.7-9.7,8.7c-3.4,7.1-3.7,14.3-3.9,21.9c-0.4,10.8-0.8,23.1-12.4,32.2
	c-12.4,9.8-25,7.3-35.2,5.4c-4.9-0.9-9.4-1.8-12.8-1c-7.8,1.8-15.5,6.9-18.8,12.2c-1.6,2.6-2,5.2-1.3,7.9c1.3,4.9,7.7,9.1,13.8,13.1
	c7.2,4.7,14.7,9.6,17.1,17.6c1.9,6.6,0.5,13.7-4,20c-6.3,8.8-17.4,14.4-29.5,14.9c-19.6,0.8-26.3,6.1-26.8,20.8l-0.1,2.1
	c-0.7,21.7-1.3,38.8-29.8,45.5c-21.5,5-37.4,17.2-47.4,36c-1.5,2.8-2.9,5.3-4.5,7.5l0,0c-9,19-8.3,31.2-4.8,41.1v0
	c3.8,6.9,5.4,14.6,2.2,23.4c-4.2,11.4-20.8,16.8-34.1,21.1c-3.9,1.3-9.3,3-10.9,4c-2.8,3.7-5.4,22.9-0.2,32.6
	c1.5,2.8,3.7,6.6,6.1,10.6c12.2,20.7,20,34.9,17.7,43.9c-1.8,6.8-11.4,13.3-34.6,27.7c-11.4,7-25.5,15.8-28.9,20.1
	c-6.6,8.3-5.6,38.3-2.1,46.7c0.5,1.2,3.3,3.8,8.8,5.8c7.4,2.7,18.7,3.8,28.2-1.2c20-10.4,30.8-15,58-5.8
	c25.6,8.7,30.4,18.9,39.9,39.4c1,2.1,2,4.3,3.1,6.7c0.8,1.7,1.6,3.4,2.4,5c9.8,20.4,16.9,35.1,12.3,45.6c-1.3,2.9-4,6.7-10.1,8.5
	c-12.7,3.9-15.7,7.8-16.5,9.8c-0.8,2.1,0.1,5,2.5,8.7c6,9.2,10.8,20.3,13.9,29c0.3,0.7,0.5,1.3,0.7,1.9l0,0.1c3,7.8,6.8,10,10.6,11
	l0.1,0c0.4,0.1,0.7,0.2,1.1,0.3c0.2,0.1,0.4,0.1,0.6,0.1c0.1,0,0.2,0,0.3,0c0.1,0,0.2,0,0.3,0.1h0c4.8,1,9.5,1.6,12.4,1.2
	c1.2-0.7,3.5-4.9,5-7.6c4.4-8,10.3-18.8,23.3-21.7c5.4-1.2,9.9-0.5,13.4,2.2c5.8,4.5,6.1,12.6,6.3,19.6c0.1,3.6,0.3,9.1,1.5,10.5
	c1.4,1.6,5.1,1.1,10.2,0.2c5.8-1,12.4-2.2,17.8,1.9c3.6,2.8,5.7,6.7,6,11.4c0.6,8.5-4.7,19-14.9,29.5c-1.4,1.4-2.3,2.5-2.8,3.3
	c2.1,0.5,6.4,1.2,14.8,0.6c11.1-0.7,21.9-14.5,30.6-25.7c3.3-4.3,6.4-8.3,9.5-11.5c10.7-11.5,13.9-15.4,16.4-29.3
	c2.7-15.5,4.9-30.2,4.1-53.1c-0.3-10.1-3.9-15.5-8.9-23.1c-4.9-7.5-11.1-16.9-14.2-32.6c-3.5-18-3.9-30.7-1-41.2
	c3.6-13.3,12.4-22.6,26.4-27.8c15.2-5.6,31.5-2.6,45.8,0c10.7,2,20.8,3.8,27,1.3c10.6-4.5,11.4-9.4,13-20.1c0.4-2.4,0.8-5.2,1.4-8.1
	c2.6-12.5,16.5-19.1,30-25.5c7-3.3,14.2-6.7,17.4-10.1c2.6-2.6,3-5.7,3.7-11.2c1-8.4,2.4-19.8,17-30.2c11.5-8.2,24.4-11.4,34.7-14
	c4.7-1.2,13.5-3.3,14.4-5.1c1.2-2.9,3.1-6.2,5.2-10.1c5.9-10.8,14.1-25.5,15.1-41.3C1623.3,465.4,1621.2,464.4,1610.1,462.6z"/>
<path id="nrw" d="M814.7,529.1c2.1-1.1,2.7-1.4-0.1-12c-1.2-4.5-2.6-9.5-3.2-15.3c-1.2-10.3,2.5-17.6,11.6-23c7.4-4.5,18.6-7.9,35.6-13.2
	c4.1-1.3,8.5-2.6,13.3-4.1l5.2-1.6c40.4-12.7,75.4-23.7,93.7-36.8c18.3-13,40.7-26.1,59.9-35c15.4-7.2,19.6-12,27.3-26.3
	c9.3-17.3,20.9-16.4,31.2-15.6c1.8,0.1,3.8,0.3,5.7,0.3c16.2,0.5,21.1,12.6,27.9,29.4c0.8,2.1,1.7,4.3,2.7,6.6
	c3,7.2,6.6,13.7,10.5,19.6c15.6,7.8,22.9,4.9,31.8-12.1c11.8-22.3,31.3-37.2,56.6-43.1c18.1-4.2,18.3-11.3,19-32.3l0.1-2.1
	c1.1-32.6,28.5-33.8,40.2-34.3c9.3-0.4,15.8-5,18.7-9.1c1.1-1.6,2.9-4.7,2-8c-0.9-3-6.4-6.6-11.3-9.8c-8-5.2-17-11.1-19.7-21.3
	c-1.7-6.3-0.7-12.7,2.9-18.6c6.3-10.4,18.8-16.5,27.6-18.6c6.2-1.5,12.5-0.3,18.6,0.9c8.8,1.7,16.5,3.2,23.9-2.6
	c6.2-4.8,6.7-11.1,7-21.7c0.3-8.3,0.6-17.7,5.3-27.5c5.5-11.4,13.6-15.2,19.5-16.4c11.3-2.3,25.1,2.9,37.8,14.2
	c9.2,8.2,18.4,12.4,25.1,11.7c3.7-0.4,6.8-2.4,9.4-6c5.8-8.1,2.5-21.9-1.3-38c-1.6-6.8-3.3-13.9-4.5-21.3
	c-2.3-14.4,2.1-31.2,12.2-46.1c2.3-3.5,4.9-6.7,7.7-9.7c9.6-12.6,5-16.9-12.1-32.4l-0.1-0.1c-8.9-6.5-16-16.2-15.7-31.5
	c0.3-21.8-4.5-29.1-18.2-38.6c-24.5-16.9-29.3-37.5-14.3-61.3l1.8-2.8c9.7-15.3,19-30.1,20.7-41.2c-23.4,6-47.9,9.6-71.6,9.6
	c-17.2,0-34-1.9-49.8-6.2c-15.8-4.3-30.6-11-43.5-20.7c-2.2-1.7-4.4-3.4-6.5-5.3c-4.3,2.6-7.1,5.6-8.5,9.1c-2.5,6.2-0.9,14.7,5,27.5
	c13.6,29.5,3.9,54.9-28.9,75.7c-37.2,23.6-76.6,22.7-88.2,15.5c-10.9-6.7-10.2-24.6-9.3-47.1c0.1-1.8,0.1-3.6,0.2-5.5l0.1-2.5
	c0.8-20.7,1.5-40.2-19.8-56.6c-16.4-12.6-43.7-25.1-92,11.3c-26.9,20.3-49.4,29.3-79.2,34.3c-5.6,1-43.1,14.3-83,35.8
	c-39.9,21.5-30.7,37.5-22.7,51.6c8,14.1,6.8,26.4-31.9,38.7c-38.7,12.3-77.4-6.1-105,0c-27.6,6.1-51,49.7-38.1,75.5
	c12.9,25.8,36.8,71.2,39.9,86.6s-14.7,66.9-28.3,83.5s-26.4,22.1-49.1,53.4c-22.7,31.3,4.3,51,19,52.8c14.7,1.8,16,20.3,11.7,30.1
	c-4.3,9.8-20.9,22.7-14.7,50.4c6.1,27.6,47.3,26.4,50.4,30.1c3.1,3.7-16,22.7-5.5,42.4s51,27,74.9,33.3c18.9-0.1,33,1.6,43.4,2.9
	C804.6,529.6,811.8,530.5,814.7,529.1z"/>
<path id="rhineland-palatinate" d="M819,814.5c56.8-17.1,98.9-15.9,115.3,3.3c10.1,11.7,7,25.9,4.5,37.3c-1.6,7.3-3.1,14.1-0.8,18c2.5,4.3,8.7,6.8,15.2,9.4
	c9.6,3.9,21.5,8.7,25.7,21.7c5.1,15.8-5.3,24-11.5,28.8c-2.6,2-5.4,4.2-5.8,5.8c-0.4,1.7,4.6,7.8,7.9,11.9
	c7.2,8.8,16.9,20.9,24.4,39.4c14.3,35.5,46.9,39.5,65,38.8c31-1.2,39.4,2.1,56.7,16.2c19,15.5,46.1,0.9,65.4-14.1
	c32.5-25.2,53.2-73.7,56.9-98.5c2.4-16.3-7.7-30.5-15.1-40.9c-3.8-5.3-6.8-9.5-8-13.6c-3.8-12.8-2.3-24.9,4.4-36
	c-2-6.8-7.8-24.2-16-36.8c-5-7.5-6.3-14.6-4-21.1c3.9-10.7,16.4-15.6,25.5-18.4c1.2-0.3,1.3-0.7,1.4-0.8c2-4.6-6.1-21.5-12.1-33.9
	c-0.8-1.7-1.6-3.4-2.4-5.1c-1.1-2.4-2.2-4.7-3.2-6.8c-9.1-19.5-11.9-25.4-31.8-32.1c-22.7-7.7-29.4-4.2-47.1,5
	c-11.5,6-26.3,6.7-39.5,2c-8.5-3.1-14.7-8-17-13.6c-4.5-10.9-7.1-46.7,4.1-60.8c4.6-5.8,15.3-12.7,32.5-23.3
	c9.6-5.9,25.3-15.7,28.4-19.6c-0.1-5.7-11.3-24.7-16.2-33c-2.6-4.4-4.8-8.1-6.4-11.2c-7.6-14.3-4.8-41.6,2.8-49.2
	c2.9-2.8,7.6-4.5,16.4-7.3c8.2-2.6,23.5-7.6,25.3-12.6c2.9-7.9-1.8-14.7-13.5-26.8c-10.1-10.5-24.6-27-33.9-49.3
	c-1-2.4-1.9-4.6-2.7-6.7c-6.8-16.9-8.9-20.5-15.4-20.7c-2.3-0.1-4.4-0.2-6.4-0.4c-9.6-0.7-12.8-1-17.8,8.3
	c-8.8,16.4-15.3,23.8-33.8,32.4c-18.4,8.6-40,21.2-57.6,33.8c-20.2,14.4-56.1,25.7-97.7,38.8l-5.2,1.6c-4.8,1.5-9.3,2.9-13.4,4.2
	c-34.5,10.7-38.4,12.8-37.4,21.2c0.5,4.8,1.7,9.1,2.8,13.3c2.6,9.6,5.8,21.5-6.9,28.1c-6.7,3.5-14.9,2.4-27.3,0.9
	c-10.9-1.3-26-3.2-46.5-2.8c-5.9,1.7-14.1,4.3-27.1,9.1c-24.6,9.1-57.1,43.6-54.6,101.9c2.5,58.3,68.2,83.5,74.3,89
	c6.1,5.5,7.4,6.8-14.1,36.2c-21.4,29.4-9.9,50.9,4.2,51.6l0.1,0C763.5,828.3,785.7,824.6,819,814.5z"/>
<path id="saarland" d="M947.9,935.9c1.4-6.5,6.4-10.4,10.9-13.8c6.7-5.3,8.8-7.5,6.8-13.5c-2.1-6.3-8-9.2-17.6-13.1c-8-3.3-17.1-6.9-22-15.3
	c-5-8.6-2.9-18.5-0.8-28c2.5-11.7,3.7-19.2-1.4-25.2c-12.1-14.2-51.6-13.8-100.6,1c-35,10.5-58.9,14.3-94.3,13.5h-0.2
	c-11.6,0-26.2,8.2-26.2,14.3c0,6.1,29.5,24,45.4,33.2c16,9.2,12.3,29.5,22.7,56.5c10.4,27,41.8,25.8,61.4,22.7
	c19.7-3.1,16-0.6,34.4,8.6c18.4,9.2,35.6,17.8,66.3,14.7c26.8-2.7,39.3-6.7,36.5-17.9c-3.7-5.5-7.4-10.1-10.6-14
	C951.6,951,946,944.2,947.9,935.9z"/>
<path id="bremen" d="M1219.7-463c0,0.7,0,1.3,0,2l0,0c0.2,10,0.4,19.3,0.4,28c0,29.9-1.3,52.8-3.1,70.7c-1.8,17.9-4,31-5.8,40.9
	c-1.2,6.6-2.2,11.9-2.7,16.3c-0.3,2.5-0.5,4.7-0.5,6.7c0,2.7,0.3,5,0.9,7.5c0.6,2.5,1.6,5.2,3.1,8.4c3.1,6.4,8.4,14.7,16.8,26.6
	c5.6,7.9,12.6,17.5,21.1,29.2c5.8,8,12.6,14.8,20.1,20.4c7.5,5.7,15.9,10.2,24.8,13.8c17.9,7.1,38.5,10.3,60,10.3
	c27.9,0,57.5-5.3,84.9-13.8c27.4-8.5,52.7-20.1,72-32.5c12.9-8.2,23.2-16.8,29.6-24.6c3.7-4.4,6.1-8.6,7.3-12.1
	c0.6-1.9,0.9-3.5,0.9-5c0-0.4,0-0.7,0-1c-0.4-4.9-0.6-10.5-0.6-17.1c0-13.5,0.6-30.5,0.6-49.9c0-17.5-0.5-37-2.3-57.3
	c-1.9-0.9-3.8-1.9-5.6-2.9c-20.3-11.1-38.4-27.5-55.2-48.7c-11.2-14.1-21.9-30.4-32.3-48.8c-11-19.3-19.1-35.1-25.2-49.8
	c-6.1-14.7-10.1-28.2-12.7-42.7c-1.7-9.6-2.8-19.7-3.4-30.8c-0.1-1.2-0.1-2.4-0.2-3.6c-8.5-4.2-16.6-7.4-24.4-9.6
	c-10.8-3.2-20.9-4.6-30.3-4.6c-11.5,0-22.1,2.1-31.9,5.8c-9.8,3.7-18.9,9.1-27.3,15.7c-16.8,13.2-30.8,31.3-42.1,50.3
	c-7.5,12.7-13.8,25.7-18.9,37.9c-6.9,16.2-11.7,30.9-14.6,41l-6.7-2l6.7,2C1220.8-478.5,1219.7-470.7,1219.7-463z"/>
<path id="hamburg" d="M1427.1-614.5c1.2,15.5,3.2,28.5,6.9,41.5c2.5,8.7,5.6,17.4,9.8,26.9c5.6,12.6,12.9,26.6,22.5,43.6
	c15.2,26.8,30.8,48.7,47.4,65.4c16.6,16.7,34.1,28.3,53.6,35c13,4.4,26.9,6.7,42.1,6.7c15.4,0,32.2-2.4,50.7-7.2
	c33.6-8.8,67.4-29.2,96.9-56.5c29.5-27.3,54.7-61.5,71.3-97.6c11.1-24.1,18.4-49,20.7-73.3c0.4-3.9,0.6-7.8,0.6-11.7
	c0-17-3.6-33.8-10-50.2c-6.4-16.4-15.8-32.3-27.2-47.3c-22.9-30.2-54.1-56.9-87.1-77.5c-21.9-13.7-44.6-24.7-65.8-32.2
	c-10.4-3.6-21.8-5.3-33.9-5.3c-24.1,0-50.8,6.6-76.7,16.3c-25.9,9.7-50.9,22.4-71.7,34.3c-31.7,18.1-51.3,51.9-51.3,88.5
	c0,16.8-0.1,31.5-0.1,44.7C1425.7-647.9,1425.9-630,1427.1-614.5z"/>
<path id="berlin" d="M2580.6-422.9c-22.4-13.9-47.3-23.7-77.1-29.5c-19.9-3.8-42-5.8-66.9-5.8c-7.2,0-14.6,0.2-22.2,0.5
	c-28.6,1.2-54.4,1.2-77.6,1.6c-23.1,0.4-43.6,1.2-61.3,3.9c-11.8,1.8-22.4,4.4-31.9,8.2c-12.6,5.1-23.3,12.1-32.5,22.5
	c-5.3,6-10.1,13-14.5,21.5c-13.1,25.3-18.3,47.3-18.3,65.5c0,15.8,3.9,28.8,10.1,38.8c6.2,10,14.8,17.2,24.4,21.3l13.9,5.9l-2.2,1.1
	c6.9,4.5,12.5,9,17.1,13.5c6.8,6.7,11.5,13.5,15,20.5c2.4,4.7,4.3,9.4,6.1,14.3c2.5,6.6,5,13.5,8.4,21.2
	c4.5,10.3,10.7,22.1,20.9,36.5c6.6,9.3,12.2,17.2,17.1,23.8c4.9,6.6,9.3,11.9,13.5,16.1c2.8,2.8,5.5,5.1,8.3,7.1
	c3.7,2.6,7.6,4.7,12.3,6.4c6.2,2.2,13.7,3.8,23.4,4.9c13,1.5,29.9,2.1,52.6,2.7c28.5,0.8,59.7,3,90.6,2.9c19.3,0,38.3-0.8,56.4-3.4
	c18.1-2.5,35.2-6.7,50.5-13.3c10.2-4.4,19.6-9.9,28.1-16.6c11.3-9,20.9-20.3,28.6-34.7c8.6-16.2,14.7-31.3,18.7-45.4
	c4-14.2,5.8-27.4,5.8-40.1c0-10.6-1.3-20.7-3.8-30.6c-2.5-9.9-6.1-19.6-10.9-29.3c-9.5-19.3-23.4-38.3-40.9-58.1
	C2622.8-391.1,2602.9-409,2580.6-422.9z"/>
</svg>
