<?xml version="1.0" encoding="UTF-8"?>
<svg width="270px" height="331px" viewBox="0 0 270 331" version="1.1" xmlns="http://www.w3.org/2000/svg" xmlns:xlink="http://www.w3.org/1999/xlink">
  <path
     id="schleswig-holstein"
     href=""
     d="M81.75817,0.121790466 C90.29865,0.121790466 98.57705,1.0156774 107.03817,1.3894054 C125.84299,2.8965004 138.68954,5.139306 157.59817,7.161981 C161.75404,7.606539 166.75621,4.208383 169.6534,7.050731 C170.88236,8.256435 172.0937,9.587061 170.81443,11.267665 C166.57772,15.592808 166.14153,17.966749 164.80137,22.841981 C163.73641,26.715901 160.96425,32.055421 158.15401,34.933501 C156.74185,36.379581 154.57449,36.617021 153.25225,38.231741 C151.80905,39.994621 152.05001,42.212861 149.91337,43.529341 C145.07177,46.512701 136.86185,47.000061 135.62825,53.881981 C134.76969,58.671741 141.50761,59.844861 140.62793,64.760701 C140.08029,67.787214 131.41488,66.659222 134.74283,71.880875 C135.23827,72.658237 135.34477,73.37552 134.02332,72.918875 C128.14944,70.415106 128.04832,67.04882 120.89343,65.510632 C119.1606,65.146811 115.7617,65.14964 113.11792,68.028577 C112.57268,68.440184 112.11288,68.253774 111.66542,67.980957 C109.80807,65.980614 110.93322,62.881805 109.33196,61.26366 C106.70246,58.829297 102.57697,56.193717 99.63272,54.463047 C89.40984,49.850956 77.13291,47.132636 70.683664,43.574635 C59.564055,30.098696 64.2892,0.0344243 81.75817,0.121790466 Z" />
  <path
     id="lower-saxony"
     href=""
     d="M69.093946,2.6587222 L21.698762,15.667233 L11.119901,75.85989 C10.684509,78.65893 7.176477,79.86661 6.348765,82.579888 C4.389405,89.003248 5.727293,97.35333 5.727293,104.01989 C5.727293,106.55333 5.039773,110.27141 5.920381,112.65989 C6.918333,115.36645 12.439133,120.66181 15.007293,121.96645 C16.859037,122.90757 18.050813,120.42693 19.487293,119.70885 C20.823933,119.04067 22.812413,119.33381 24.287293,119.08517 C26.814333,118.65957 29.700733,117.55621 32.287293,117.84005 C33.518653,117.97509 34.323453,118.98917 35.487293,119.30405 C37.398013,119.82085 40.011773,119.19365 41.887293,118.72613 C46.370813,117.60837 49.061693,113.10693 53.727293,112.43589 C57.522493,111.89029 61.499453,114.50821 61.988093,118.41989 C62.486973,122.41477 60.616573,127.50501 66.527293,127.03013 C69.939453,126.75557 75.548697,123.93221 75.618497,120.01989 C75.657497,117.82565 73.123453,115.32261 74.670657,113.33349 C76.404737,111.10437 80.76922,110.48101 83.15482,111.83333 C84.91706,112.83269 85.75482,114.39365 87.9673,114.54885 C90.51098,114.72709 92.83066,112.45157 95.31322,113.08293 C96.80378,113.46181 97.1353,115.18597 96.76378,116.49989 C96.03034,119.09445 92.79994,121.18565 93.51034,124.17989 C94.01818,126.32037 96.54426,127.11461 97.5113,128.98117 C98.27738,130.45989 97.7737,132.33125 98.53626,133.76613 C99.43034,135.44869 101.61498,135.89541 102.90586,137.17477 C104.09818,138.35621 106.35539,147.25839 105.1557,148.47307 C105.784809,154.001532 106.682436,157.018859 107.848581,157.525053 C111.668416,159.183146 117.696933,153.730801 119.650551,153.575325 C125.120275,153.140024 129.284688,150.665502 132.936278,147.514674 C136.587868,144.363846 133.906823,134.1164 134.757545,131.795191 C135.608268,129.473983 139.26652,129.79764 140.673272,128.98117 C143.003158,127.628919 143.525845,125.233096 143.689132,124.754261 C145.020477,120.850121 143.689132,120.38662 143.689132,118.72613 C143.689132,116.73902 139.19942,109.673104 138.228085,104.01989 C137.256749,98.3666759 139.493535,95.9310321 140.14639,94.666473 C140.799246,93.4019139 142.247742,93.6510506 143.689132,93.4420269 C145.635442,93.159782 147.543824,90.7236575 149.393926,90.259888 C150.867477,89.8905095 152.390473,91.4877448 153.241111,91.2458704 C155.950701,90.4754128 156.592738,89.8070493 155.16722,89.2407799 C150.33036,85.2720386 146.67308,82.4854416 144.19538,80.8809889 C142.971493,80.0884521 140.775767,80.4048977 139.611438,79.6146689 C138.645233,78.9589066 137.450592,76.5454253 136.47919,75.85989 C133.976591,74.0937624 130.259173,71.8032054 125.326934,68.988219 C122.70271,67.5619427 120.810582,66.8935201 119.650551,66.9829515 C115.656824,67.2908434 112.639659,69.7715525 111.063168,68.988219 C107.230162,67.0836582 110.154968,64.4354427 107.848581,61.6270629 C105.378407,58.6192461 97.7365473,55.4772057 95.31322,54.4177774 C88.6231357,51.4930116 84.5703357,49.7860339 83.15482,49.2968444 C71.7295778,45.543585 65.2041777,40.829331 63.5786198,35.1540826 C62.3193803,30.757748 62.4581063,21.273238 65.6432805,11.2112551 C66.2610016,9.25987065 67.6503857,6.84484863 69.8114329,3.96618905 L69.093946,2.6587222 Z" />
  <path
     id="mecklenburg-vorpommern"
     href=""
     d="M251.8073,37.779892 C253.9177,42.540852 254.3673,47.994612 254.3673,53.139892 C254.3673,54.764532 254.7833,57.089972 254.03834,58.579892 C252.31834,62.019892 247.79866,65.148532 245.0873,67.859892 C242.96474,69.982452 240.0585,74.268532 237.0873,75.081012 C234.73498,75.724532 232.15994,74.670132 229.7273,75.111412 C229.01018,75.241332 227.99194,75.559732 227.51034,74.785652 C226.4105,73.017652 229.84122,71.129012 227.13242,69.561652 C224.3609,67.957812 218.13018,69.222452 215.0073,69.489972 C211.34938,69.803252 210.72954,73.125492 208.80122,75.535092 C207.29434,77.417972 204.8137,78.647412 202.5273,79.288372 C196.56346,80.961012 189.72282,81.361652 183.6473,80.015092 C180.37914,79.290612 177.49722,77.267892 174.0473,77.153652 C170.4137,77.033332 169.37082,79.560372 166.68602,81.309812 C164.14106,82.968048 161.14842,82.840048 158.3673,83.742768 C157.0569,84.168368 155.92954,85.358128 154.5273,85.455408 C149.23002,85.823408 148.01882,80.691892 143.9673,79.195572 C140.4041,77.879732 140.60077,79.858168 136.47919,75.963128 C135.914762,73.2347163 135.692919,71.4560035 135.813662,70.6269894 C136.052294,68.9885527 137.461024,68.6450599 137.806156,67.859892 C138.799514,65.6000292 141.987841,66.3223252 141.598838,62.3468045 C141.209836,58.3712837 136.979738,56.9469588 136.47919,54.2985866 C136.145492,52.5330051 137.117027,50.4895454 139.393797,48.1682074 L148.97491,45.6802202 C151.685679,41.7074607 153.749782,39.0740179 155.16722,37.779892 C157.478147,35.6700063 160.087453,36.1185992 162.252589,33.3828819 C166.409747,28.1301828 170.341317,19.627181 174.0473,7.87387657 L231.231815,17.7195583 L251.8073,37.779892 Z" />
  <path
     id="brandenburg"
     href=""
     d="M254.6873,59.21989 C254.7423,65.88677 253.97242,73.78021 255.0793,80.33989 C255.55802,83.178288 257.70938,85.710128 258.31418,88.659888 C259.16442,92.805808 258.47226,96.977968 258.8809,101.1399 C259.06586,103.02565 260.23034,104.69541 260.57018,106.57989 C261.18842,110.00837 261.0873,113.66373 261.0873,117.13989 C261.0873,120.49349 260.74842,124.05701 261.22426,127.37989 C261.55258,129.67205 262.54778,133.26757 261.21426,135.37989 C259.34034,138.34821 254.65778,143.23013 251.48722,144.74821 C249.75506,145.57765 247.83826,145.31205 246.04722,145.82373 C244.48402,146.27045 243.21106,147.41317 241.56722,147.62917 C239.05874,147.95909 236.7541,146.17957 234.20722,147.24741 C230.18386,148.93413 227.51058,153.38917 223.32722,154.64389 C220.71602,155.42693 217.96562,153.91269 215.32722,153.94565 C213.25522,153.97185 210.88818,154.82725 208.94002,153.75653 C203.98162,151.03173 205.32114,145.21189 203.94354,140.81989 C203.14962,138.28933 201.708435,134.550113 199.742355,132.879073 C194.182035,128.152353 184.785104,130.816609 180.693904,123.756449 C178.330384,119.677409 180.25778,115.087103 179.04882,110.945023 C178.49778,109.056063 175.970358,109.264902 176.258038,107.044422 C176.845558,102.507782 181.69138,99.9868905 179.04882,95.0992085 C177.48754,92.2115285 173.39016,91.889791 170.87368,91.159231 C168.85896,90.574591 168.217963,88.9932599 166.347243,88.2255799 C161.643883,86.2962999 151.96714,88.457008 155.16722,86.099888 C157.300607,84.5284747 160.811113,83.5076757 165.69874,83.0374912 C166.907308,79.6227886 169.524731,77.8095804 173.551009,77.5978665 C179.590426,77.2802957 187.552013,83.4597056 197.033754,81.3898012 C201.189618,80.4825585 205.198845,79.8707299 207.445786,78.0539639 C210.325315,75.7257183 211.204731,72.0816181 215.32722,70.3735705 C217.863423,69.3227598 223.109846,68.8179927 226.110266,70.3735705 C227.244872,70.9618107 227.821224,72.6973356 227.839321,75.5801453 L237.217469,75.5801453 L254.6873,59.21989 Z" />
  <path
     id="saxony-anhalt"
     href=""
     d="M156.76722,90.259888 C155.85266,91.360688 155.04178,93.027248 153.56594,93.438448 C151.99538,93.876208 150.3733,92.729328 148.77202,93.332848 C147.48434,93.818288 147.05618,95.312688 145.82834,95.826928 C143.59794,96.760688 141.11122,95.041008 139.83602,97.94149 C138.6325,100.67749 140.08818,103.73509 141.0677,106.259888 C142.92594,111.04997 145.90002,116.31781 145.53842,121.61989 C145.35602,124.29637 144.75954,128.31141 142.30834,129.91141 C139.48882,131.75173 134.50546,130.69861 134.38482,135.37989 C134.31982,137.89573 136.13092,143.385425 137.8762,145.224465 C139.29988,146.724625 141.544397,146.932172 143.016717,148.570572 C144.907597,150.674892 145.082245,153.209434 147.988165,154.868954 C150.870405,156.515354 154.31698,155.680759 156.76722,157.838519 C159.68818,160.410679 153.899239,162.607747 155.904359,165.226947 C157.399079,167.178947 160.982587,165.45152 162.948667,166 C167.919547,167.38688 171.3301,173.871634 176.80178,173.240594 C178.62482,173.030354 180.42514,170.90181 180.19506,169.29989 C179.85362,166.92069 177.38258,165.74053 176.80178,163.53989 C176.32786,161.74373 178.20562,160.32293 178.70002,158.73989 C179.40626,156.47749 177.2901,153.70704 178.70002,151.51216 C180.30994,149.0056 183.628468,147.46629 186.323188,146.73669 C192.134068,145.16293 201.85361,144.979918 202.694324,144.014016 C203.535038,143.048114 202.410864,137.487285 198.560439,134.325241 C196.216915,132.400693 190.706798,130.116711 182.030088,127.473293 C179.713682,125.18357 178.361652,123.232435 177.973996,121.61989 C177.392513,119.201072 179.20679,116.250502 178.70002,113.621072 C178.362173,111.86812 177.319596,110.380557 175.572288,109.158386 C175.345171,106.645385 175.345171,104.886414 175.572288,103.881473 C176.237121,100.93973 177.864985,98.9570986 177.973996,97.94149 C178.294487,94.9556356 177.192364,95.4563151 176.90962,94.5515797 C176.158234,92.1472645 172.976379,95.2847764 171.007434,94.5515797 C169.694804,94.0627818 167.820528,92.632218 165.384605,90.259888 L156.76722,90.259888 Z" />
  <path
     id="thuringia"
     href=""
     d="M136.9273,146.89989 C135.32762,147.504884 127.10842,152.03013 121.8873,154.87877 C119.4857,156.18885 117.40794,157.90725 118.60506,160.97509 C119.6905,163.75621 124.17274,163.39013 124.94842,166.11365 C125.4313,167.81029 124.4569,169.44261 123.72826,170.89989 C121.9945,174.36805 119.85882,177.58661 117.72826,180.81989 C116.58618,182.55301 114.7369,184.95077 115.68026,187.17733 C116.16474,188.32005 117.39386,188.23525 118.30714,188.81605 C119.32826,189.46533 119.4361,190.96965 120.45018,191.50821 C121.93786,192.29765 123.85626,191.85765 125.3945,192.77733 C127.1689,193.83845 127.87034,195.92645 129.3513,197.29061 C130.5353,198.38085 132.16058,198.78597 133.37754,199.82469 C135.11834,201.31109 135.83642,204.69925 138.52698,204.76645 C143.03514,204.87845 138.22874,199.76069 140.78618,199.05285 C142.97146,198.44837 145.96634,198.49029 148.1273,199.16517 C149.25818,199.51813 150.69242,200.86533 151.92474,200.29733 C155.62362,198.59237 149.390084,191.281604 154.119684,190.087684 C154.630724,189.958724 156.251201,188.80997 156.774081,188.81605 C161.021121,188.86695 158.500279,192.975608 160.398519,194.770168 C162.358519,196.622648 166.256662,194.596728 168.670102,194.770168 C169.657302,194.841168 170.752547,195.289848 171.662627,194.770168 C173.528227,193.705208 171.723044,189.60037 173.181284,187.90533 C174.944484,185.85541 177.291393,188.097581 179.224513,186.524161 C181.324673,184.814721 180.7721,182.36773 181.7721,180.17989 C183.0569,177.36773 184.470376,176.302072 186.767656,174.921272 C187.763176,174.323192 189.0742,173.609794 188.76732,172.458434 C188.06588,169.829314 185.48442,170.486471 183.42234,169.119751 C181.36026,167.753031 179.695695,173.258885 178.068862,173.46597 C173.807456,174.008418 168.056727,171.363067 167.394382,170.89989 C166.021578,169.93989 164.620583,167.230532 162.994827,167.492805 C159.20026,168.10496 154.163606,165.499506 154.119684,165.111007 C153.928633,163.421078 155.414681,160.687311 155.904359,159.837567 C156.608852,158.615052 154.016499,157.541576 148.1273,156.617138 C145.881051,155.458226 144.384257,154.132433 143.636919,152.63976 C141.151734,147.676056 137.651461,146.626015 136.9273,146.89989 Z" />
  <path
     id="hesse"
     href=""
     d="M66.3848692,182.544198 C67.9272692,180.681158 67.458193,179.62021 69.420113,178.14373 C71.006673,176.95013 73.678997,176.79461 74.931157,175.25381 C76.203157,173.68869 75.113877,171.15301 76.549077,169.75877 C78.12892,168.22373 81.05308,169.32677 82.19356,167.04581 C83.56316,164.30565 78.35548,163.26917 79.66236,160.69349 C80.9718,158.11333 84.46048,159.50629 86.98844,158.31813 C89.54155,156.78434 87.579,153.64273 89.47153,152.17755 C97.5806978,151.479905 102.430083,151.479905 104.019686,152.17755 C106.404089,153.224017 104.293462,155.895177 106.199928,157.838519 C108.106393,159.781861 109.892814,159.526165 111.443207,159.12781 C114.112515,158.441963 115.303442,156.553028 117.01668,157.197324 C118.601253,157.793234 117.129047,160.436355 118.101371,161.812391 C119.621865,163.964197 123.188732,165.0544 123.596418,166.005567 C124.264811,167.564985 123.156783,168.156976 122.400724,169.75877 C118.522864,177.974439 115.120994,184.411189 114.738707,186.235849 C114.32816,188.19539 115.783652,189.085614 118.101371,189.894548 C118.275532,189.955334 117.913969,191.896402 117.01668,195.717751 L109.955929,198.572456 L107.340121,203.021421 C105.150791,204.111204 103.666328,205.025637 102.886732,205.764722 C101.717337,206.873348 102.753414,208.722311 100.630075,209.382773 C98.5067357,210.043236 94.7892965,208.674301 92.0925022,210.446149 C89.3957078,212.217997 89.47153,212.883077 89.47153,216.47409 C89.47153,220.065104 91.4223317,222.16266 92.0925022,224.759091 C92.5392825,226.490045 92.311512,228.264483 91.4091907,230.082405 L93.6457387,232.972905 C90.3611174,235.924388 88.1420179,237.691453 86.98844,238.274099 C85.2580732,239.148068 84.0277596,238.733111 83.1499299,238.274099 C82.5647101,237.96809 82.2459201,237.132351 82.19356,235.766881 C81.6174886,233.164241 80.7737552,231.475201 79.66236,230.699758 C77.9952671,229.536594 76.5742896,231.122671 74.931157,230.699758 C73.2880244,230.276845 72.0964838,228.706529 72.2181531,227.10262 C72.3398224,225.498711 75.6214412,225.760345 75.4537274,223.810958 C75.3419182,222.511366 73.8806478,219.672541 71.0699164,215.294483 C68.1021991,213.315511 66.0082926,212.215804 64.7881967,211.995364 C63.0923557,211.688968 62.1069915,212.756001 60.9272256,213.086893 C59.6449634,213.446531 58.2188622,213.086893 57.6490198,213.086893 C56.1948818,213.086893 56.2756669,209.573657 58.3709409,207.357372 C59.86341,205.778707 63.3060847,205.787218 63.742517,203.98586 C64.7916559,199.655578 61.5347042,197.870825 62.2620759,194.046674 C62.9894476,190.222523 66.7537869,190.226785 67.6163581,188.212988 C68.1246735,187.026252 64.8424692,184.407238 66.3848692,182.544198 Z" />
  <path
     id="bavaria"
     href=""
     d="M119.6473,192.01989 C117.861124,190.390387 118.13786,195.88549 116.72474,196.86661 C114.78714,198.21221 112.2457,197.93317 110.49338,199.80517 C109.43578,200.93509 109.50202,202.58149 108.54234,203.73861 C107.34618,205.18117 105.28474,205.62277 104.06778,207.08965 C103.12826,208.22213 103.27994,210.00741 101.9753,210.85509 C98.83514,212.89477 93.68378,209.22149 91.04026,212.87909 C88.19674,216.81349 93.35354,222.39365 93.40602,226.25989 C93.42652,227.76101 92.73562,231.10981 94.70618,231.59333 C96.79642,232.10661 99.75866,230.01573 99.82298,227.85989 C99.85628,226.75333 98.82778,225.44965 99.42842,224.41189 C100.15066,223.16453 102.0665,223.06021 103.3273,223.06245 C106.37914,223.06745 106.9273,225.49829 109.40858,226.41925 C111.14714,227.06437 112.92986,225.54917 114.22714,227.57477 C115.5081,229.57477 114.49594,232.91749 116.80186,234.35781 C118.5433,235.44581 122.63866,232.08581 123.60122,234.62725 C124.8217,237.84933 120.33018,241.30949 122.1513,245.13989 C122.99162,246.90725 124.48378,248.22469 125.39162,249.93989 C126.10618,251.29061 126.20218,252.84485 127.18586,254.07013 C128.95546,256.27429 131.47738,256.72997 131.9865,259.85989 C132.31354,261.87013 133.57498,267.25381 131.75994,268.58245 C130.55034,269.46757 128.23706,268.50465 127.33658,269.65285 C125.91578,271.46405 127.86362,273.80037 125.39322,275.67653 C123.31738,277.25317 120.62362,276.01669 119.14874,278.74469 C117.00666,282.70757 120.61498,287.87845 121.4473,291.85989 C122.1289,295.12037 120.28538,297.91493 120.38394,301.13989 C120.43064,302.66085 120.67382,304.71223 122.35595,306.36313 C125.97572,314.01169 127.7551,321.66026 136.16598,329.30882 L228.128983,321.976452 L240.006281,245.13989 L187.005948,210.85509 C180.88432,203.445706 176.143225,198.78288 172.782664,196.86661 C167.741823,193.992205 163.4752,196.916863 160.30178,195.627753 C157.12836,194.338642 158.084142,188.794942 156.097822,190.088874 C155.408103,190.538171 154.30644,190.49171 154.086548,192.01989 C153.673175,194.892713 154.389481,200.02961 152.846144,201.272836 C150.481841,203.177388 146.373479,199.438437 144.156202,199.80517 C142.678018,200.049659 141.78553,201.947314 141.478739,205.498136 L135.220314,204.768261 C134.532579,203.145594 133.880279,201.980452 133.263413,201.272836 C130.517649,198.123126 127.246556,195.765034 125.39162,194.072801 C123.605444,192.443298 121.433476,193.649393 119.6473,192.01989 Z" />
  <path
     id="north-rhine-westphalia"
     href=""
     d="M25.7331988,132.01479 C21.7107333,133.33083 6.4668085,128.855105 5,133.491025 C3.09460815,139.513108 8.29016125,146.261682 8.29016125,148.761431 C8.29016125,163.75151 6.92272675,155.106339 5.28143732,163.349533 C5.02554365,164.634731 2.15306222,162.94353 0.968203827,165.993302 C-2.12639483,173.95866 4.72029641,172.694025 3.10170857,175.813632 C2.36951899,177.224828 1.23340533,177.475797 1.7224764,178.988538 C2.60955561,181.732354 1.80048998,184.625441 3.10170857,187.198817 C4.60541121,190.172638 5.51839819,191.644154 9.93144742,192.594787 C14.0099363,193.473351 18.2358102,195.13614 22.3277531,194.322537 C24.6077031,193.869213 24.8945963,190.061262 27.0501553,189.191067 C33.1697416,186.720602 34.163255,188.661087 40.1405844,185.863933 C59.4101032,176.846561 50.6632561,175.813632 58.6857176,174.347403 C59.6374925,174.173451 60.5221252,178.278732 61.8560663,180.613355 C62.871246,182.390092 64.3693157,182.585761 65.0532601,182.337756 L68.6922148,177.573198 C70.5933806,176.883816 73.3522937,175.355983 74.3942876,173.465261 C75.0788534,172.2231 73.8938284,170.486166 75.20623,169.916555 C86.5341268,165 77.9715232,165.993302 77.9715232,162.018152 C77.9715232,160.618614 78.5105572,159.56071 79.7343487,158.752003 C82.8591338,156.687082 83.4352104,157.885687 86.5341268,155.782143 C88.1835449,154.662518 88.1779163,151.773153 89.9602848,150.880234 C93.8096606,148.951801 103.085954,152.950221 104.081237,148.761431 C105.12661,144.361834 104.836348,142.020647 102.13681,138.392734 C99.6661794,135.072451 98.1486979,134.390198 96.5593574,130.568903 C93.7737462,123.871383 91.728891,126.356357 92.5596772,122.724477 C92.6827593,122.186409 93.7002257,120.766445 93.9872109,119.927565 C94.1203769,119.538311 94.4920435,118.81119 95.2049916,117.497694 C95.911724,116.19565 95.5342948,114.716094 95.2049916,114.332907 C94.3145306,113.296739 90.2698618,115.746089 87.9226178,115.479875 C85.0419751,115.153165 83.8518566,113.366702 82.7420516,113.059592 C79.9840729,112.296393 77.1996477,112.45874 76.2090501,114.332907 C75.50113,115.67226 77.4335207,118.011394 76.2090501,121.305253 C74.0359856,127.150854 68.6943252,129.253571 61.8560663,126.33514 C59.3663947,125.272599 60.1824043,123.96262 60.3559772,121.305253 C60.5025776,119.06083 59.797217,116.611295 59.3784253,115.479875 C58.7466077,113.772937 56.1220166,111.823872 52.2810722,113.059592 C50.0853181,113.766017 47.5772104,116.407383 44.6015367,118.471257 C40.4310316,121.363844 30.217985,118.500463 25.7331988,121.305253 C25.7331988,124.576724 25.7331988,126.898382 25.7331988,128.270229 C25.7331988,129.27828 25.7331988,130.526466 25.7331988,132.01479 Z" />
  <path
     id="saxony"
     href=""
     d="M190.709658,209.981786 C238.790135,188.632788 203.212495,200.196238 242.673302,195.011544 C255.773841,193.290285 266.327858,180.497191 267.569813,167.646672 C268.310313,159.984713 263.077322,138.423177 253.939796,144.528768 C251.680098,146.038673 249.151659,146.291963 246.560989,146.8599 C244.338255,147.347178 242.056848,148.241015 240.006281,148.370417 C237.520718,148.527268 237.138526,147.228449 234.646974,148.370417 C231.177642,149.960536 229.488332,153.140147 225.471676,154.868954 C222.580949,156.113152 218.478436,154.888094 215.442116,154.868954 C212.391079,154.849722 210.407929,156.030591 208.210597,154.868954 C204.816998,153.074902 204.124943,147.629856 200.5783,146.161365 C196.261051,144.373804 191.190274,146.278737 186.592521,147.112212 C184.180986,147.549373 181.041739,150.261168 179.800526,152.374459 C178.656872,154.321649 180.239998,154.974715 179.800526,156.578113 C179.294392,158.42473 177.873502,161.617662 177.993234,163.349533 C178.069015,164.445668 179.517976,164.254912 179.800526,165 C180.957827,168.051812 183.67702,168.803373 186.592521,169.894473 C190.521675,171.364924 188.056803,170.531396 187.50495,173.283696 C186.807752,176.760895 185.432821,177.350717 183.872428,179.511281 C182.740516,181.078557 182.293311,186.823217 180.953553,187.868685 C172.845909,194.195409 167.047879,189.669612 179.800526,199.758172 C182.434034,201.841527 181.65853,204.794658 186.592521,207.993283 L190.709658,209.981786 Z" />
  <path
     id="baden-wuerttemberg"
     href=""
     d="M131.301164,325.53645 C126.904513,329.751627 99.8141847,326.693948 92.3435465,329.30882 C73.8590429,329.348041 63.823306,329.348041 62.2363357,329.30882 C57.8054749,329.199315 46.3183841,317.892143 42.2069709,316.236607 C38.0779423,314.573977 37.5506188,289.579284 36.7002074,279.805217 C34.7656334,257.5705 52.8894623,271.870343 63.8711544,258.765733 C65.2371425,257.13568 69.426832,256.225076 70.7120814,254.453803 C72.6075622,251.841538 74.8053193,247.868781 74.7940118,243.843207 C74.7814299,239.363954 71.8593246,235.250332 74.110097,232.450517 C74.3155255,232.194977 75.5567961,231.726288 76.2757308,231.548878 C77.194954,231.322044 77.6837225,231.429873 78.6079314,231.548878 C80.8061296,231.831927 81.9517763,233.772873 81.5394537,234.800783 C79.9974163,238.645042 84.0313681,244.38249 94.2668031,233.942977 C95.2843426,232.905149 98.5137641,232.333319 99.9478727,230.170917 C101.441853,227.918238 101.156114,224.089108 102.989908,223.84191 C105.477636,223.506561 105.863017,225.981385 108.218564,227.145086 C109.310048,227.684307 112.318979,226.554992 112.705773,227.898223 C114.693416,234.800783 116.78223,236.709526 121.26347,234.800783 C125.74471,232.892039 119.239739,242.78488 121.26347,246.22296 C123.263293,249.620425 127.483393,254.908927 129.708336,258.166622 C131.202771,260.354729 132.813229,266.089703 130.56556,267.274773 C127.015676,269.146427 125.644463,269.543474 125.233197,272.578572 C124.904201,275.006524 120.712258,274.47016 118.868904,276.245012 C117.364581,277.693431 117.832432,280.585615 117.518534,282.56033 C116.612385,288.260871 120.52667,288.801733 120.21877,294.565627 C120.022155,298.246246 118.387515,301.211549 118.868904,303.400427 C119.660871,307.001504 122.954418,309.01265 123.962243,312.430581 C124.819354,315.337378 126.712466,317.166252 127.5,321.227619 L131.301164,325.53645 Z" />
  <path
     id="rhineland-palatinate"
     href=""
     d="M6.93132158,205.83139 C7.2127589,195.618259 16.7119984,196.923805 22.4071435,196.923805 C26.5500638,196.923805 26.5500638,193.178113 28.4188609,190.887462 C29.2460792,189.873512 35.9438024,188.630479 44.4630597,184.674001 C51.9396121,181.201771 56.0667358,175.756803 56.6618444,175.813632 C62.0306788,176.3269 59.2251774,177.232869 60.6648641,180.042556 C61.5568793,181.783409 67.7732711,186.693149 66.4026054,187.972234 C64.6792499,189.580445 61.2978914,192.003046 61.289665,192.512901 C61.2709897,193.670346 60.8338645,195.720598 61.289665,197.911781 C61.7367152,200.060898 63.0782601,202.357615 62.9203873,202.86321 C62.5903006,203.920328 60.3813736,204.417702 59.9657114,204.768261 C58.9891162,205.591897 57.3298606,207.11801 56.6618444,208.153828 C55.6314074,209.751612 54.3196591,214.257001 56.6618444,214.257001 C62.9203873,214.257001 70.1017553,212.731393 70.4525794,217.250892 L71.8234323,219.431081 C71.9508916,221.073077 71.7421919,222.832575 70.9999795,224.302785 C70.1514316,225.983629 69.664233,226.392364 70.4525794,228.10227 C71.487906,230.347872 71.2934953,229.481143 71.8234323,231.896469 C73.4145954,239.148606 74.2803474,242.437084 71.8234323,249.443429 C70.6501937,252.789134 68.9654666,257.076058 65.5206679,256.246968 C58.2996026,254.509009 46.4155989,253.732138 43.0637537,246.718839 C41.493486,243.433259 41.493486,240.959991 43.0637537,239.299038 C41.5245518,235.600401 39.8962694,230.315578 36.5570589,228.10227 C33.8023569,226.276389 18.8132492,234.376347 12.646995,229.757325 C10.7319492,228.322801 15.8311478,224.751766 14.6076707,220.640156 C13.3650649,216.464261 6.64988426,216.044522 6.93132158,205.83139 Z" />
    <path
       id="saarland"
       href=""
       d="m 17.511216,239.31526 c 2.989719,8.11496 3.701557,8.39969 5.267601,8.54206 1.566044,0.14237 4.698131,-0.85421 7.260748,-0.28474 2.562617,0.56947 2.277882,2.70499 4.698131,2.70499 2.420249,0 10.1081,-0.28474 10.1081,-1.56605 0,-1.2813 -4.982866,-3.70155 -2.847352,-4.98286 2.135514,-1.28131 3.127193,-2.0256 1.06531,-4.42962 -2.061883,-2.40403 -4.05503,-1.54982 -4.339765,-3.11587 -0.284735,-1.56604 2.562617,-4.12866 0.284735,-5.97944 -2.277882,-1.85077 -5.979439,-2.98971 -14.663863,0 -8.684424,2.98972 -9.823365,-1.2813 -12.101247,-0.4271 -2.2778816,0.85421 -5.8370717,7.11838 -2.135514,8.25732 3.701558,1.13894 7.403116,1.28131 7.403116,1.28131 z"/>
    <path
       id="bremen"
       href=""
       d="m 69.760127,79.009337 c 0.854206,25.341433 -5.409969,16.514642 3.701558,29.042993 9.111527,12.52835 36.730845,0.56947 36.161375,-5.69471 C 109.05359,96.09345 113.03988,72.175692 94.532091,61.640489 76.024302,51.105286 69.760127,79.009337 69.760127,79.009337 Z"/>
    <path
       id="hamburg"
       href=""
       d="m 94.816826,46.264788 c 0.284735,20.2162 -1.138941,21.35514 4.840498,31.890343 5.979436,10.535203 12.528346,14.806231 23.348286,11.958879 10.81994,-2.847352 21.35514,-15.375701 22.49408,-27.049845 1.13894,-11.674144 -11.95888,-22.494082 -22.49408,-26.195639 -10.5352,-3.701558 -28.188784,9.396262 -28.188784,9.396262 z"/>
    <path
       id="berlin"
       href=""
       d="m 186.50156,104.92024 c 6.54891,3.70156 3.9863,5.97944 8.8268,12.81309 4.84049,6.83364 4.84049,7.11838 15.3757,7.40311 10.5352,0.28474 24.77196,2.27788 30.18193,-7.97258 5.40997,-10.25047 2.84735,-17.08412 -3.70156,-24.487233 -6.54891,-7.403115 -13.66729,-11.104673 -27.04984,-10.535203 -13.38256,0.569471 -21.63988,-1.138941 -25.91091,7.118381 -4.27103,8.257321 -1.70841,13.952025 2.27788,15.660435 z"/>
</svg>
