<svg version="1" xmlns="http://www.w3.org/2000/svg" width="800" height="800" viewBox="0 0 600.000000 600.000000"><path d="M179.7 160.1c-.9.6-1.7.7-1.7.3 0-.3-.6-.1-1.4.5-.8.7-1.7.8-2 .3-.3-.5-1.7-.7-3.1-.5-1.3.3-2.3.9-2 1.2.2.4-.2.8-1 .8s-1.5-.7-1.5-1.6c0-1.4-.2-1.4-1-.1-.5.8-1 1.1-1 .6 0-.5-.6-.3-1.4.3-1.1.9-1.6.9-2.2 0-.5-.8-.3-.9.6-.4.9.5 1.1.4.6-.4-.5-.7-1.2-.9-1.9-.3-1.7 1.3-5.6 2.1-6.1 1.4-.2-.4-2.7-.7-5.5-.6-4.1.1-5.6.7-7.2 2.5-1.2 1.3-2.5 2.3-2.9 2.2-.4-.1-.6.8-.6 2 .1 1.2-.2 2.8-.8 3.5-.6.8-1.1 2.4-1.3 3.5-.2 1.8-.1 1.9.7.7.5-.8 1-1.1 1-.6 0 .5-.8 1.8-1.7 2.9-1.3 1.5-1.4 1.8-.3 1.2 1.2-.7 1.3-.6.3.7-.7.8-1 1.8-.6 2.1.3.4-.1.7-1 .7s-1.7.5-1.7 1.1c0 .6.7.8 1.6.5 1.4-.5 1.5-.4.4.9-.7.8-.9 1.5-.5 1.5s.2.6-.4 1.4c-.9 1.1-.9 1.6 0 2.2.8.5.9.3.4-.6-.5-.9-.4-1.1.4-.6.9.6.9 1.1 0 2.2-.8 1-.8 1.4 0 1.4.6 0 1.1.5 1.1 1.1 0 .5-.6.7-1.2.4-.7-.4-.5 0 .5.8 1.3 1.1 1.5 1.7.7 2.2-.9.6-.9 1 .1 1.6 1.1.7 1.1.9-.1.9-1.3 0-1.3.2-.1.9.9.6 1.1 1.5.6 2.7-.4 1.1-.8 3.4-.8 5.2 0 2.6-.3 3.2-1.5 2.7-1.1-.4-1.2-.2-.5.7 1 1.4 1 11.5-.1 12.5-.3.3-.1 1.2.5 1.9.7.9.7 1.9-.1 3.4-.9 1.6-.8 2.4.5 3.6 1.6 1.7 2 2.8.6 2-.5-.3-1.1.1-1.5.9-.3.8-.1 1.5.5 1.5s.6.7.1 1.7c-.4 1-.7 3.7-.6 6 .2 3.4-.1 4.3-1.4 4.3-1.5 0-1.5.2-.2 1 1.1.7 1.1 1 .2 1-.7 0-1 .4-.7 1 .3.5.1 1-.5 1s-.8.4-.5 1c.3.5.3 1.5-.1 2.2-.4.6-.9 4.1-1.1 7.7-.2 3.6-.9 7.2-1.6 8-.9 1.2-.9 1.3.1.7 1.3-.8 1.7.6.5 1.8-1 1-1.2 5.6-.1 5 1.2-.8 1 1-.4 2.5-1 1.1-1 1.3 0 .7 1.1-.7 1.7 1 1.3 4.1-.1.7.3 1.3 1 1.3.8 0 .8.4-.1 1.5-1 1.2-1 1.5 0 1.5s1 .3 0 1.5c-.6.8-.9 1.8-.6 2.3.3.5-.1 2.1-.9 3.6-1 1.8-1.1 2.5-.2 2.1.7-.4.5-.1-.4.7-.9.7-1.4 1.9-1.1 2.7.3.8 0 1.1-.7.7-.6-.4-1.1-.2-1.1.3 0 .6.6 1.1 1.3 1.1.8 0 .7.4-.3 1-.8.5-1 1-.4 1s1.1 1.7 1.2 3.7c.1 2 .7 4 1.4 4.5 1 .6 1 .8 0 .8-.7 0-1 .5-.7 1 .4.6 1.1.8 1.6.5.5-.3.6.1.3.9-.4.9-.1 1.6.6 1.6.9 0 .9.4-.1 1.7-1 1.1-1 1.4-.1.9.8-.5 1.2-.1 1.2 1.2 0 1.1.7 3.2 1.4 4.8.8 1.5 1.3 3.1 1 3.6-.3.4-.1.8.5.8.5 0 .7 1.3.5 3-.4 2-.1 3 .8 3 1 0 1 .2-.1.9-1.6 1-.7 4.7 1.4 5.5.9.3 1.2 0 .9-.8-.4-1 .2-1.2 2.2-.8 2.1.4 2.5.2 1.9-.8-.6-1-.4-1.2.9-.7 1 .4 1.5.3 1.1-.3-.3-.6 0-1 .7-1 .9 0 .9-.3-.2-1-1.3-.8-1.2-1 .3-1 .9 0 1.6-.3 1.6-.8-.3-1.9.2-3.3 1-2.8 1.2.8.8-2.7-.4-3.6-.6-.5-.5-.8.3-.8.7 0 1.1-.4.7-.9-.3-.5-.1-1.2.5-1.6.6-.4.8-1.1.5-1.6-.4-.5.2-.9 1.2-.9 1.4 0 1.5-.2.4-.9s-1-1 .4-1.8c1.2-.7 1.4-1.2.6-1.7-.7-.5-.8-1.3-.2-2.5.5-.9.6-2.3.2-3-.4-.7-.6-2.4-.3-3.8.3-1.6.1-2.4-.5-2-.5.3-1 0-1-.7 0-.9.7-1.2 1.6-.9 1.3.5 1.4.3.4-.8-1.7-1.7-1.7-3.2 0-2.3.6.4.3-.3-.7-1.5-1.5-1.6-1.6-2-.5-1.6 1 .4 1.6 0 1.6-.9 0-.8-.4-1.3-.8-1-.4.2-1 0-1.3-.5-.3-.5.2-1.2 1.2-1.6 1.6-.7 1.5-.8-.3-1.5-1.8-.8-1.8-.9.4-.9 2.4-.1 2.4-.1.5-1.6-1-.8-1.4-1.5-.8-1.5.6 0 1-1.6.9-3.5-.1-2 .1-3.8.5-4 .9-.5.6-3.7-.5-5.4-.6-1-.4-1.2.6-.6 1.2.8 1.2.6 0-.8-1.1-1.4-1.1-1.7 0-1.7.9 0 1-.3.4-.8-.5-.4-1.1-3.1-1.2-6-.2-4.5.1-5.7 2-7.3 2.5-2.1 4.2-2.5 3.1-.7-.6 1-.4 1 .7.2.8-.6 2.4-1 3.7-.9 1.2.1 2.2-.2 2.2-.6 0-.9 6.8-2.4 8.9-2 .8.1 1-.2.6-1.1-.6-1-.5-1 .5-.1.9.8 1.9.9 3.2.2 1-.5 2.3-.7 2.8-.4.5.3 1.1.1 1.5-.5.4-.6 1-.8 1.5-.5.5.3 1.2 0 1.6-.6.5-.8.9-.7 1.4.2.7 1 1.2 1 2.2.1.8-.6 2.9-1.2 4.6-1.4 1.8-.1 3.2-.6 3.2-1s.5-.8 1.1-.8c.5 0 .7.6.4 1.2-.4.7.1.4.9-.6.9-1.1 1.6-1.6 1.6-1.2 0 .5.8.2 1.7-.5 1.4-1.2 1.6-1.2.9.1-.4.9-.2.8.7-.2.8-1 1.7-1.5 2-1.1.4.3.9-.2 1.3-1.1.3-.9 1.1-1.3 1.8-.9.6.3.8.3.4-.2-.4-.4-.2-1.5.5-2.3 1-1.3.9-1.4-.3-.7-1.2.6-1.2.5-.3-.5.6-.7.9-2 .6-2.9-.5-1.3-.3-1.2.9.2 1.3 1.7 1.4 1.7 1.3-.5-.2-3.4-1.5-6.8-2.6-6.8-.6 0-.8-.4-.5-.9.4-.5-.4-.7-1.6-.3-1.2.3-1.9.1-1.5-.5.3-.5 0-1-.8-1s-1.2.4-.9.9c.3.4 0 .8-.5.8-.6 0-1.1-.4-1.1-1 0-.5-1.6-.8-3.5-.6-1.9.1-3.5-.2-3.5-.7 0-.5-.7-.3-1.7.4-1.3 1.1-1.7 1.2-2.1.1-.3-1-.8-.8-1.8.5-.9 1.2-1.3 1.3-1.4.5 0-.7-.4-1-1-.7-.5.3-1 .2-1-.2 0-.5-1.8-.9-4-.8-2.2.1-4.6-.2-5.2-.6-.7-.4-1.8 0-2.5.9-1.2 1.5-1.3 1.5-.7.1.3-1 0-2-.7-2.5-.8-.5-1-.3-.4.6.6.9.2 1-1.5.5s-2.1-.4-1.6.6c.4.8 0 .5-.8-.5-1-1.3-1.6-1.5-1.6-.7 0 .9-.4 1-1.2.4-.7-.6-2.7-1-4.5-.9-1.7 0-2.9-.3-2.5-.9.3-.5.6-4.5.7-9 0-4.4.5-8.7 1-9.4.4-.8.4-1.2-.1-.8-.5.3-.9-5.1-.9-12.7 0-13.2 0-13.3 2.3-13 1.2.1 2.2-.2 2.2-.7 0-.6.5-.7 1-.4.6.3 1 0 1-.7 0-.8.3-.9.8-.3.4.5 5.2 1.1 10.7 1.3 5.5.1 10.2.7 10.3 1.2.2.6.8.8 1.3.4.5-.3.9-.1.9.5s.7.7 1.7.4c1.1-.4 1.4-.3.9.5-.4.7-.2 1.2.3 1.2.6 0 1.1-.6 1.1-1.3 0-.7.3-.8.8-.2 1 1.4 3.2 1.7 3.2.5 0-.6.5-1 1.1-1 .5 0 .7.4.4 1-.3.6.1.7.9.4.9-.3 1.3-1 1-1.5-.4-.8 2.6-1.4 4.9-1 .5.1.6-.3.2-.9-.4-.6.7-1.5 2.4-2.1 1.7-.6 2.9-1.5 2.6-1.9-.3-.4.2-1.1 1.1-1.4.8-.3 1.2-1 .9-1.6-.3-.5.2-1 1.2-1.1 1.1 0 1.3-.3.5-.6-.6-.2-.9-1-.5-1.6 1-1.6 1.2-5.7.2-5.2-.4.3-1-.2-1.3-1.1-.4-1-.2-1.3.6-.8 1.5 1 .1-1.3-3.1-4.9-1.4-1.5-3.1-2.5-3.8-2.3-.7.3-1.3 0-1.3-.7 0-.8-.4-.6-1 .3-.5.8-1 1.1-1 .7 0-.4-.8-.3-1.8.2-1.3.7-2.3.6-3-.1-.9-.9-1.2-.9-1.2.1 0 1.1-.3 1.1-1.7 0-1.4-1.2-1.5-1.2-.9 0 .7 1 .4 1.2-1.2.7-4.4-1.4-6.3-1.5-5.7-.3.4.7-.1.3-.9-.7-.9-1.1-1.6-1.4-1.6-.8 0 .9-.5 1-1.8.3-1.1-.6-2.4-.6-3.5 0zM153 264c0 .5-.5 1-1.1 1-.5 0-.7-.5-.4-1 .3-.6.8-1 1.1-1 .2 0 .4.4.4 1zM453 159.8c0 .9-.7 1.1-1.9.7-1.3-.4-2.3 0-3 1.2-.6 1.1-1.1 1.3-1.1.5 0-.7-.5-1-1-.7-.6.4-.8 1.1-.5 1.6.4.5.1.9-.5.9s-.8.4-.5 1c.3.5.1 1-.4 1-.6 0-1.1 1.1-1.1 2.5s-.4 2.5-.9 2.5-.8 1.1-.6 2.5c.1 1.4-.2 2.5-.6 2.5-.5 0-.8.6-.6 1.2.1.7-.4 1.2-1 1-.7-.1-1.2.1-1.1.5.3 1.7-2.3 6.4-3.2 5.8-.6-.4-1-.3-.9.2.1.4-.3 2.1-1 3.8-.7 1.6-1.2 3.2-1.1 3.4.1.2-.4.7-1.1 1.2-.7.4-1.4 1.8-1.6 3-.2 1.3-.9 2.7-1.6 3.1-.6.4-.7.8-.2.8.6 0 .2.5-.7 1-1 .6-1.5 1.9-1.3 3 .2 1.1.1 2-.3 2s-.8.9-.9 2c-.1 1.1-1.4 3.1-2.9 4.5-2.8 2.6-3.5 3-3.3 1.7.3-1.9-.2-3.3-1.1-2.7-.5.3-2.1-.5-3.5-1.9-1.4-1.5-3-2.6-3.6-2.6-.6 0-.8-.4-.5-.9.3-.5-.1-1.2-1-1.5-.9-.3-1.4-1.3-1.1-2.1.4-.9.1-1.2-.9-.8-.8.3-1.4-.1-1.4-1.1 0-.9-.5-1.6-1.1-1.6-.5 0-.8-.4-.5-.9.3-.5-.1-1.1-.9-1.5-.8-.3-1.5-1.3-1.5-2.1 0-.9-.4-1.4-.9-1.1-.5.3-1.1-.1-1.5-.9-.3-.8-1-1.5-1.6-1.5-1.6 0-4-2.6-3.2-3.4.3-.4-.1-.4-1.1 0-.9.3-1.7.1-1.7-.5s-.7-.8-1.5-.5c-.8.4-1.5.1-1.5-.6 0-.9-.4-.9-1.7.1-1.1 1-1.4 1-.9.1.5-.8 0-1.2-1.6-1.3-1.3-.1-3.9-.2-5.8-.3-1.9-.1-4.3.2-5.4.7-1.1.6-1.6.5-1.3-.1.4-.5-.4-.7-1.8-.4-1.4.2-2.8.9-3.2 1.5-.3.6-.1.7.5.3.7-.4 1.2-.2 1.2.3 0 .6-.3 1.1-.7 1.1-.5 0-.7 1.7-.7 3.7.1 2.1-.3 4.3-.8 5-.5.7-.7 1.7-.3 2.3.3.5.1 1-.5 1s-.9.4-.5.9c.3.5.1 1.2-.3 1.5-.5.3-.8 1.5-.7 2.8.1 1.3-.3 2.9-.9 3.7-.8 1.1-.8 1.3 0 .8.7-.4 1.5 0 1.8.8.3.9-.1 1.8-.9 2.2-1.4.5-1.3.7.1 1.8 1.4.9 1.4 1.4.4 2-.9.5-1.1.4-.6-.3.4-.7.3-1.2-.2-1.2-1 0-.8 7.8.3 8.8.5.4.5.1 0-.7-.6-1-.4-1.2.5-.6 1.1.7 1 1-.1 1.9-.8.6-1.3 1.9-1.1 3 .2 1.1 0 1.6-.7 1.2-.7-.5-.8-.1-.4 1s-.1 2.2-1.2 3c-1.3 1-1.5 1.4-.5 1.4s1.1.3.3 1.1c-.6.6-.9 1.7-.7 2.4.3.7.1 1.6-.4 1.9-.6.3-.6 2.3-.1 4.8.4 2.6.4 4.4-.2 4.6-.6.3-.5 1 .2 1.8 1 1.2.9 1.3-.4.8-1.2-.4-1.6 0-1.5 1.8.2 5.2-.2 6.9-1.4 6.2-.9-.5-.9-.2.1.9 1.1 1.4 1.1 1.7 0 1.7-1.2 0-1.2.2-.1.9 1.5.9 2.4 9.1 1 9.1-.5 0-.6.5-.2 1.1.3.6 0 1.5-.7 2-1.2.8-1.2 1.1.1 1.9.8.5 1 1 .4 1s-1.1.7-1.1 1.5.4 1.5.9 1.5.6.6.1 1.2c-1.4 2.3-1.2 3.8.5 3.9 1.1 0 1.2.2.5.6-.7.2-1.3.9-1.3 1.4 0 .6.3.8.8.5.8-.5.7 6.2-.2 7.1-.3.4-.1 1.2.5 1.9.7.8.7 1.4-.1 1.9-.8.5-.8 1.1.1 2.1.7.8.7 1.4.1 1.4-.5 0-1.3.7-1.6 1.6-.3.8-.2 1.2.4.9 1.4-.9 1.2 1.9-.2 3.4-1.1 1.1-1 1.2.2.6 1.3-.8 1.3-.7.1.8-1.1 1.4-1.1 1.7 0 1.7 1.2 0 1.2.2 0 .9-.9.6-1 1-.2 1.6.7.4.8 1.1.3 1.8-1.1 1.6-.9 5.2.3 5 .6-.1 1.1 1.2 1.1 2.8.1 1.6-.2 2.6-.7 2.3-.5-.3-.4.7.1 2.2.9 2.2.8 2.5-.3 1.6-1.1-.9-1.3-.8-1.2.6.2 2.4 3.5 7.3 4.6 6.6.5-.3.9 0 .9.7s.3.9.6.6c.4-.3 1.6-.2 2.7.4 1.4.8 1.8.8 1.3 0-.4-.6-.2-1.1.4-1.1.6 0 .8-.4.5-1-.4-.6.1-.7 1.1-.3 1.2.4 1.5.3 1-.5-.6-1 .4-1.6 2.5-1.4.3.1.4-1.1.1-2.5-.3-1.8-.1-2.4.7-1.9 1.5 1 1.4-.7-.1-2.3-1-1.1-1-1.3 0-.7.7.4 1.2.1 1.2-.8 0-.8-.6-1.7-1.2-1.9-.7-.3-.4-.6.7-.7 1.9-.1 1.9-.1.1-1.1-1.3-.8-1.5-1.3-.6-1.9.6-.4 1.2-2.3 1.3-4.3.1-2.2.5-3.3 1.1-2.9.6.3.5-.1-.2-1-1-1.3-1-1.7 0-2.1 1-.4 1-.8-.1-1.5-1.2-.9-1.2-1.3-.2-2.6.8-.9 1-1.6.6-1.6s-.2-.6.4-1.3c.6-.8.7-1.8.3-2.2-.4-.5.1-.5 1-.2 1.2.4 1.5.2 1.2-.8-.3-.7-.1-2.3.5-3.4.7-1.2.7-2.2.1-2.6-.6-.3-.6-1.5 0-3 .6-1.6.5-2.5-.2-2.7-.8-.3-.8-1-.1-2.2.5-1 .7-3.7.3-6.2-.4-2.5-.3-4.7.2-5 .4-.3.6-1 .2-1.5-.3-.5.1-2.1 1-3.4 2-3 2.1-4.6.2-2-1.3 1.9-1.4 1.8-1.3-.7.1-1.4.5-2.4 1-2.1.4.2.7-.2.8-.9.4-6.8.3-10.8-.4-10.8-.5 0-.5-.5-.2-1 .4-.6.1-1.8-.6-2.6-.9-1.2-.9-1.3.2-.9s1.4-.7 1.5-5c.1-3.1.8-6.2 1.5-7.1 1-1.3 1-1.7 0-2.3-1-.7-1-1.3-.2-2.9 1.4-2.6 1.4-3.2 0-3.2-.5 0-.7.5-.3 1.2.4.7.3.8-.5.4-.8-.6-.9-1.2-.2-2 .7-.9.7-1.7-.2-2.6-1-1-.9-1.2.4-.7 1 .3 1.6-.1 1.6-.9 0-.9-.6-1.3-1.5-.9-1.2.4-1.3.3-.2-1 .7-.8.9-1.5.5-1.5s-.1-.8.6-1.7c1.2-1.5 1.2-1.6-.5-1-1.4.6-1.7.4-1.2-.9.3-.8.6-1.8.6-2 0-.2.5-.4 1.1-.4.5 0 .7.4.4 1-.3.5.3 1 1.4 1 1.2 0 2.1.5 2.1 1.1 0 .5-.6.7-1.2.4-.7-.4-.3.2.9 1.3s1.9 2.2 1.6 2.6c-.4.3-.1.6.5.6.7 0 1.1.6.9 1.2-.1.7.3 1.2 1 1.1.7-.2 1 .6.8 1.7-.3 1.4.2 2 1.3 2 1.3 0 1.4.2.4.9-1.1.7-1.1.9.2 1.4.9.4 1.3 1.3 1 2.2-.4.9 0 1.5 1 1.5s1.3.6 1 1.5c-.4 1 0 1.5 1.2 1.6 1.1 0 1.4.3.7.6-.7.2-1.3.9-1.3 1.4 0 .6.4.8.9.5.5-.4 1.2.7 1.6 2.4.4 1.6 1.1 3 1.6 3s.8.3.7.7c-.3 1.4 2.5 6.3 3.6 6.3.6 0 .4.5-.4 1-1.1.7-1.1 1-.2 1 .7 0 1.1.4.8.9-.3.5.7.8 2.3.7 1.7-.1 2.8.1 2.5.5-.2.4.3.9 1.1 1.2 1 .4 1.2.1.9-1.1-.5-1.5-.4-1.5.9 0 1.6 2.1 3.2 2.4 2.1.5-.6-.9-.4-.9.8.1 1.1.9 1.8 1 2.3.2.4-.7 1.2-.7 2.6 0 1.5.9 2.1.7 2.5-.5.3-.8 1.3-1.5 2.1-1.5s1.1-.5.8-1c-.3-.6.2-1 1.1-1 1 0 1.4-.3 1.1-.7-.7-.7 3.9-5.3 5.3-5.3.5 0 .7-.6.4-1.3-.2-.7.4-2.2 1.4-3.3 1-1.1 1.8-2.8 1.6-3.7-.1-1 .4-2.1 1.2-2.4.8-.3 1.3-1.2 1-1.9-.3-.7.5-2 1.7-2.9 1.2-.8 1.7-1.5 1.2-1.5s.1-.9 1.3-2c1.2-1.2 2.2-3.1 2.2-4.4 0-1.3.6-2.9 1.4-3.5.8-.7 1.3-2.1 1.1-3.2-.2-1 .2-1.9.8-1.9.7 0 .6-.4-.3-1-1.3-.8-1.2-1 .3-1 .9 0 1.7-.5 1.7-1.2 0-.6.3-.9.6-.5.3.3.6.9.6 1.4-.1.4.7 1.6 1.5 2.5.9 1 1.3 1.8.8 1.8-.4 0-.2.6.4 1.4.8 1 .9 1.6.1 2.1-.6.3-.8 1.1-.4 1.6.3.6.7 4 .9 7.7.2 3.7.4 6.9.5 7.2.1.3.3.9.4 1.5 0 .5.7 2.1 1.5 3.5 1 1.7 1.5 6.5 1.6 16 .2 11.6.5 13.9 2 15.8 1 1.1 2 3.1 2.2 4.4.2 1.9.1 2-.8.8-.8-1.2-.9-1.2-.6.5.2 1.1.9 1.9 1.7 1.7 1.1-.3 1.1 0 0 1.2-.7.9-.9 1.6-.5 1.6s.2.6-.4 1.4c-.9 1.1-.9 1.6 0 2.2.8.5.9.3.4-.6-.5-.9-.4-1.1.4-.6.9.6.9 1.1 0 2.2-.6.8-.8 1.4-.4 1.4s.2.6-.4 1.4c-.9 1.1-.9 1.6 0 2.2.8.5.9.3.4-.6-.5-.9-.4-1.1.4-.6.6.4.8 1.3.4 1.9-1.1 1.8-1.2 3.6-.3 4.2.4.3.6 1.4.3 2.5s.1 2.8.8 3.7c1.2 1.5 1.2 1.6-.4 1-1.1-.4-1.6-.3-1.2.4.4.6.7 2.6.7 4.5 0 2.3.4 3.2 1.2 2.7.7-.4.6-.1-.2.9-1.3 1.6-1.2 4.4.2 6.7.7 1.1.5 1.3-.8.8-1.1-.4-1.5-.3-1.1.4.4.6.7 2.6.7 4.5 0 2.3.4 3.2 1.2 2.7.8-.5.8-.3 0 .8-1.5 1.8-1.5 6.9 0 6.9.6 0 .4.5-.4 1-1.1.7-1.1 1-.2 1 .7 0 1 .5.7 1-.4.6-.2.9.4.8.5-.2 1.7.6 2.6 1.7.9 1.1 1.4 1.3 1 .5-.4-.8.3-.4 1.5 1s1.8 1.8 1.4 1c-.6-1.2-.5-1.3.7-.5.8.6 2.1 1 2.9.9.8-.1 2.1-.2 2.8-.3.7 0 1-.6.7-1.1-.6-.9.7-1.4 2.7-1.1.4 0 .5-.6.2-1.4-.4-.8.1-1.7 1-2.1.9-.3 1.3-1 1.1-1.5-.3-.4.3-2.7 1.4-4.9 1-2.2 1.4-3.7.9-3.4-.7.5-.9-.2-.6-2 .3-1.4.1-2.9-.5-3.3-.6-.4-.7-.1-.2.7.5.9.4 1.1-.4.6-.9-.6-.9-1.1-.1-2.1.8-.9.8-1.5 0-2-.5-.3-1-1.9-1-3.6 0-1.6-.5-2.9-1.2-2.9-.6 0-.3-.7.8-1.5 1-.8 1.4-1.5.7-1.5s-1-.7-.6-1.7.2-1.4-.5-.9c-.6.3-1.3.2-1.6-.3-.4-.5-.1-1.3.5-1.7.8-.5.9-.3.4.7-.5.8-.4 1 0 .6 1.4-1.2 1.5-3.8.2-3-.7.4-.6-.1.2-1 .7-.9.9-1.7.4-1.7-1.2 0-1.1-3 .2-4.9.5-1 .4-1.2-.3-.7-1.6 1-1.5-.7.1-2.3 1-1.1.9-1.3-.3-.7-.8.4-.6 0 .4-.8 1.7-1.4 1.7-1.6.4-1.6-.9 0-2-.5-2.4-1.2-.4-.6-.3-.8.3-.5.6.4 1.3 0 1.7-.8.3-.8 0-1.5-.6-1.5s-.5-.6.3-1.7c1.2-1.5 1.2-1.6-.1-.8-1.3.7-1.3.6-.2-.7 1.1-1.4 1-1.8-.5-2.8-1.6-1-1.6-1.1 0-.6 1.3.4 1.7-.1 1.7-2.2 0-1.6-.5-3.3-1.2-4-.7-.7-.8-1.2-.2-1.2.6 0 1.1-.7 1.1-1.5s-.4-1.5-.9-1.5c-.4 0-.8-1.8-.8-3.9 0-2.2-.5-4.3-1-4.6-.8-.5-.8-1.1 0-2 .8-.9.8-1.5 0-2-.5-.3-1-1.1-1-1.6 0-.6.5-.7 1-.4 1.3.8.8-1.7-.5-2.8-.6-.4-.4-1.1.5-1.7 1-.6 1.1-1 .3-1-.7 0-1.3-.5-1.3-1.1 0-.5.6-.7 1.3-.3.7.5.6 0-.3-1-.8-1.1-1.3-2.9-1.2-4.2.2-1.3-.1-2.4-.6-2.4-.6 0-.8-.9-.5-2 .3-1.1.1-2-.4-2-.6 0-.9-1.1-.8-2.5.2-1.4-.1-2.5-.6-2.5-.6 0-.6-.8.1-1.9.7-1.4.7-2.2-.2-2.7-.7-.5-.8-.3-.3.6.5.9.4 1.1-.3.6-.9-.5-.8-1.4.4-3.1 1-1.6 1.2-2.5.4-3-.8-.5-.8-1 0-2s.7-1.4-.2-1.8c-1-.4-1-.8.2-1.6.8-.6 1-1.1.4-1.1-.7 0-1.5-.7-1.8-1.6-.4-1-.2-1.3.7-.8.9.6.8.3-.1-.8-.7-.9-1.2-2.2-1.1-3 .3-2.6-.1-3.9-1.1-3.3-1.7 1.1-1.1-.7.8-2.1 1.3-1.1 1.3-1.3.1-.9-1.1.4-1.5-.1-1.5-2.2.1-1.5-.4-2.7-.9-2.6-.6.1-1.1-.7-1.1-1.8 0-1 .4-1.9.9-1.9.4 0 .5-.5.2-1-.3-.6 0-1 .7-1 1 0 1-.2-.1-.9-.7-.5-1-1.4-.7-2 .4-.6 0-1.1-1.1-1.2-1.1 0-1.3-.3-.5-.6 1-.4 1-.8.1-1.9-.9-1.1-.8-1.8.1-2.9 1.1-1.3 1-1.4-.3-.9-1.2.4-1.5.1-1.2-1.5.2-1.2 0-2.1-.6-2.1-1.1 0-.7-2.2.6-3.2.6-.5.5-.8-.3-.8-.7 0-1-.5-.7-1 .3-.6 0-1-.7-1-.9 0-.9-.3.2-1 1.3-.8 1.3-1-.2-1-1.4 0-1.7-.7-1.4-3 .2-2-.1-3-1-3-.8 0-1.4-1.1-1.4-2.6 0-1.7-.6-2.8-2-3.1-1.1-.3-2-1-2-1.7s-.3-.7-.8-.1c-.4.5-1.4 1-2.2 1-.8 0-1.8-.5-2.2-1-.5-.6-.8-.5-.8.3zm23 65.6c0 .3-.4.8-1 1.1-.5.3-1 .1-1-.4 0-.6.5-1.1 1-1.1.6 0 1 .2 1 .4zM278.4 160.7c.7 1.3-.4 1.7-3.3 1.4-.8-.2-1 .2-.5 1s.2 1.1-.8.7c-1.1-.5-1.4 0-1.2 1.8.1 1.6-.3 2.4-1.2 2.4-.9 0-1.2.5-.9 1 .3.6-.3 2.3-1.4 3.9-1.1 1.5-1.8 3.1-1.4 3.5.3.3.1.6-.6.6s-.9.4-.6 1c.3.5.3 1.6-.2 2.2-1.1 1.9-1 6.2.2 7 .6.5.5.8-.2.8s-1.3.7-1.3 1.5-.5 1.5-1.1 1.5c-.6 0-.9.9-.6 2 .3 1.1 0 2.3-.5 2.7-.7.4-.8.1-.3-.7.6-.9.4-1.1-.4-.5-.7.4-1.1 1.6-.8 2.6.3 1.1.1 1.9-.5 1.9-.5 0-.7.4-.3.9.3.5.1 1.2-.5 1.6-.6.4-.8 1.1-.5 1.6.4.5 0 .9-.7.9-.9 0-.9.3.2 1s1.1 1 .2 1c-1 0-1 .5-.2 2 .9 1.6.8 1.8-.5 1.4-1-.4-1.5 0-1.5 1.5 0 1.2-.6 2.1-1.2 2.1-.9 0-.8.4.2 1s1.1 1 .3 1c-.7 0-1.3.7-1.3 1.6 0 .9-.5 1.2-1.2.8-.8-.5-.7 0 .2 1.1 1.2 1.5 1.2 1.7.1 1-1.1-.6-1.3-.4-.8.8.3 1 .2 1.7-.4 1.7-.6 0-.7.4-.4 1 .3.5-.2 2.2-1.2 3.7s-1.3 2.4-.7 2.1c.6-.4 1.1-.1 1.1.7 0 .8-.5 1.1-1 .8-.6-.4-.8 0-.4.9.3.9-.3 2.5-1.3 3.6-1.4 1.5-1.6 2.2-.7 2.5.9.4.9.6-.1.6-.7.1-1 .5-.7 1.1.3.5.1 1-.4 1-.6 0-1.1.5-1.1 1.1 0 .5.6.7 1.3.3.8-.6.8-.3-.2.9-.7.9-1.4 3.1-1.6 4.9-.4 4.2-.8 5.9-1.9 7.7-.6 1-.5 1.2.2.7 1.6-.9 1.5.7 0 2.2-.9.9-.9 1.2.3 1.2s1.2.2-.1 1c-.8.5-1.1 1-.7 1 .4 0 .3.9-.3 2-.8 1.5-.8 2 .2 2 .9 0 .9.3-.2 1-1.6 1-1.6 1-1.8 8.8-.2 3.9-.5 5.1-1.4 4.7-.7-.4-.4.1.6.9 2 1.6 2 1.6 0 1.7-1.1 0-1.4.3-.6.6 1 .4 1 .8 0 2.1-1 1.2-1 1.4 0 .8.6-.4 1.2-.2 1.2.3 0 .6-.4 1.1-.9 1.1-.6 0-.8.9-.6 2 .2 1.1-.1 2-.6 2-.6 0-.7.5-.4 1 .4.6.1 1.8-.7 2.7-.9 1.2-.9 1.5 0 .9 1.5-.9 1.6.6 0 2.2-.9.9-.9 1.2.3 1.2s1.2.2-.1 1c-1 .6-1.1 1-.2 1 .6 0 1.2.5 1.2 1.1 0 .5-.3.8-.7.6-.5-.3-.8 1.5-.9 4-.1 2.8.2 3.9.8 3.1.5-.9.7-.6.5 1-.2 1.3-1.1 3.2-2 4.2-.9 1.1-1.2 2-.6 2 .5 0 .7.5.4 1-.4.6-1 .8-1.4.6-.4-.3-.8.1-.8.9s.7 1.5 1.6 1.5c1.4 0 1.4.1.1 1-.8.5-1.6 1.8-1.6 3-.1 1.1-.3 2.3-.4 2.7-.6 2-.4 3.9.5 5.2.7 1.1.7 1.3-.2.8-.6-.4-1.4-.3-1.8.3-.3.5-.1 1 .5 1 .8 0 .8.6 0 2-.9 1.6-.8 1.9.6 1.3 1.4-.5 1.5-.3.5 1.5-.7 1.2-.8 2.2-.4 2.3.4 0 1.5.2 2.3.4.8.3 2.4.6 3.5.7 1.1.2 2.3.7 2.7 1.3.5.6.8.5.8-.4s.5-.7 1.8.6c.9 1 1.4 1.4.9.7-.5-.8.1-1 1.8-.9 1.7.2 2.5-.2 2.5-1.1 0-1 .5-1.2 1.3-.8.9.6.9.4-.1-.8-.8-1.1-.9-1.7-.2-2 .6-.2 1.3-1.6 1.6-3.3.3-1.6 1-3.5 1.6-4.2.6-.8.8-1.6.5-2-.4-.3.1-1.2 1.1-1.9 1.3-1 1.4-1.3.3-1.4-1.1 0-1-.4.5-1.6 1-.8 1.3-1.3.6-.9-1.6.8-.5-4.6 1.2-5.7.8-.6.8-.8 0-.8-.6 0-1.1-.7-1.1-1.5s.4-1.5.9-1.5c.4 0 .8-.7.8-1.6 0-.8-.4-1.2-1-.9-.5.3-1 .1-1-.4 0-.6.6-1.1 1.3-1.1.8 0 1.2-1.5 1.1-4.5 0-2.6.4-4.5 1-4.5s.5-.4-.3-.9c-.9-.6-1-1-.2-1.6.9-.5.9-1.1-.1-2.3-1-1.2-1-1.4 0-.8.6.4 1.2.2 1.2-.3 0-.6-.5-1.1-1.1-1.1-.5 0-.7-.5-.4-1 .4-.6.9-.8 1.3-.6.4.2.7-2.4.7-5.7 0-3.4.4-6.8.8-7.5.6-.7.5-1.2-.2-1.2-.6 0-1.1-.5-1.1-1.1 0-.5.5-.7 1.1-.3.8.5 1-.4.7-2.9-.2-2-.1-3.4.3-3.1.4.2 1.1-.1 1.4-.6.5-.8 1.4-.5 2.8.7 1.2 1 1.7 1.2 1.2.4-.6-1.1-.4-1.3.8-.8 1 .4 1.7.2 1.7-.5 0-.6.6-.5 1.7.3 1.4 1.2 1.6 1.2.9-.1-.4-.8 0-.6 1 .5 1.4 1.7 1.6 1.7 1.1.2-.7-1.8.4-2 12.1-1.9 2.5 0 4.2-.5 4.2-1.2 0-.6.5-.4 1 .4s2.4 1.5 4.2 1.5c1.8 0 3.3.3 3.3.6s.6 1.3 1.4 2.2c.7 1 .9 1.7.4 1.7s-1 .7-1 1.5.5 1.1 1 .8c.6-.4.8.3.5 1.5-.4 1.4-.2 2 .4 1.6.7-.5.9.2.4 1.9-.3 1.4-.2 2.9.4 3.2.7.4.7 1.2 0 2.5s-.7 2.1.2 2.6c.7.4.8.3.4-.4-1.1-1.8 0-1.4 1.5.5.8 1 .9 1.4.2 1-.8-.5-1.1.2-1.1 2.3.1 1.6.6 3 1.2 3 .7 0 .7.3.1.8-1.1.8-1.6 4.2-.6 4.2.5 0 .7 2.3 1.1 13.5 0 1.1-.1 3.8-.4 6-.2 2.2.2 4.6.8 5.4.9 1.2.8 1.3-.4.6-1.2-.7-1.1-.3.3 1.8.9 1.5 1.4 2.7 1 2.8-.5 0 .3.5 1.6 1 1.4.5 2.7.6 3 .2.3-.5 1.7-.8 3.1-.7 1.4.1 3.1-.3 3.8-.8.8-.7 1.2-.7 1.2.1 0 .7.5.9 1 .6.6-.4.8-1.1.5-1.6-.4-.5.2-.9 1.2-1 1.1 0 1.3-.3.5-.6-.6-.2-.9-1-.5-1.6.4-.7 0-.8-1.1-.4-1 .4-1.5.3-1.1-.3.3-.6 1.3-1 2.1-1 1.4 0 1.3-.2 0-1.6-1.6-1.6-2.2-3.9-.8-3 .4.2.8-.6.8-1.9 0-1.3-.3-2.2-.8-1.9-.4.3-.6-2-.5-5.1.2-3 .1-5.5-.2-5.5-.4 0-.7-3.9-.9-8.8-.4-11.3-.4-11.2-1.6-11.2-.6 0-.5-.4.2-.9.8-.4 1.4-1.2 1.4-1.6 0-.4-.6-1.2-1.4-1.6-.7-.5-.8-.9-.3-.9.6 0 1.1-.9 1.1-2s-.3-2-.6-2c-.4 0-.7-.7-.7-1.5s.5-1.5 1.1-1.5c.7 0 .8-.3.1-.8-1.1-.8-1.5-8.2-.4-8.2.9 0 .6-2.7-.4-3.6-.3-.4-.2-1.5.4-2.5.6-1.2.6-1.9 0-1.9-.5 0-.8-1.1-.6-2.5.1-1.4-.2-2.5-.7-2.5-.5 0-.6-.5-.3-1 .3-.6.1-1-.6-1s-.9-.8-.6-2.1c.3-1.3 0-2.2-1-2.6-1.2-.5-1.2-.7-.1-1.4.8-.6.9-.9.1-.9-.6 0-1-1.1-.8-2.5.1-1.4-.2-2.5-.8-2.5-.5 0-.4-.7.3-1.5 1-1.2.9-1.6-.4-2.1-1.1-.4-1.6-1.8-1.6-4.5 0-2.6-.6-4.1-1.7-4.8-1.2-.7-1.4-1-.4-1.1 1.1 0 1.1-.3 0-1.7-1.2-1.4-1.2-1.6.1-.9.8.4.6 0-.4-.8-1.1-.9-1.6-1.6-1-1.6.5 0 .2-.5-.6-1-1.2-.8-1.2-1-.1-1 1 0 1.1-.3.2-1.3-.6-.8-.8-1.7-.4-2 .3-.4.1-.7-.6-.7s-.9-.5-.6-1.1c.4-.6-.1-1.6-1.1-2.3-1.3-1-1.4-1.5-.5-2.1.9-.5.6-1.4-1.1-3.3-1.3-1.4-1.8-2.2-1.1-1.9.6.4.3-1.1-.8-3.2-1-2.2-1.9-4.5-1.9-5.1 0-.6-.4-.9-.9-.5-.6.3-.8-.4-.6-1.5.2-1.1-.2-2-.8-2-.7 0-.6-.4.3-1 1.3-.8 1.3-1-.2-1-1.1 0-1.6-.6-1.3-2 .2-1.1-.3-2.7-1.1-3.5-.9-.9-1.1-1.5-.4-1.5.7 0 .5-.7-.4-1.6-.9-.8-1.4-2-1.1-2.5.4-.5.1-.9-.4-.9-.6 0-1.1-1.4-1.1-3 0-2-.5-3-1.5-3-.8 0-1.5-.7-1.5-1.6 0-.9-.5-1.2-1.2-.8-.7.4-.8.3-.4-.5.4-.6.2-1.8-.4-2.6-1-1.2-1-1.5-.1-1.5.8 0 .7-.6-.3-1.6-1.9-1.8-6.6-2.6-6.6-1.1 0 .5-.8.3-1.7-.4-1.1-1-1.4-1-.9-.2zm5.2 33c-.3.8-.1 1.1.4.8.6-.3 1-.1 1 .5s.5.8 1.2.4.8-.3.4.5c-.4.6-1.3.8-1.9.4-.7-.3-.4.3.7 1.5 1 1.2 1.6 2.8 1.2 3.7-.3.9-.2 1.4.3 1.1.5-.3 1.2.1 1.5 1 .3.8.2 1.3-.3 1-.5-.4-.4.5.2 1.9.7 1.4 1.7 2.5 2.2 2.5.6 0 .3.5-.5 1-1 .6-1.1 1-.2 1 .6 0 1.2.9 1.2 2.1 0 1.1.4 1.7 1 1.4.6-.3.7.1.4 1-.4.9.1 2.2 1.2 3.1 1.8 1.4 1.8 1.4-.1.8-1.9-.5-1.9-.5-.1 1 1 .8 1.6 2.1 1.4 2.8-.3.7.2 1.9 1.1 2.6.9.8 1 1.1.4.7-.7-.3-1.3-.1-1.3.4 0 .6.5 1.1 1 1.1.6 0 1 1.6 1 3.5 0 2 .5 3.5 1.2 3.5.6 0 .8.3.5.7-.4.3-.2 1.2.4 2 .9 1 .7 1.3-.7 1.3-1.7 0-1.7.1.2 1.6 1 .8 1.4 1.3.7 1-.6-.4-1.4-.2-1.8.4-.3.5-.2 1 .3 1s.9.7.9 1.5c0 .9-.4 1.2-.9.7s-3.2-.5-6-.2c-2.9.4-6.1.5-7.2.2-1.4-.4-1.7-.2-1.1.8.6.9.4 1.1-.6.4-.8-.4-3.5-.9-6-1-2.6-.1-5.2-.5-5.9-.9-.9-.5-1.1-.4-.6.3.4.7.2 1.2-.3 1.2-1.2 0-1.2.1-1.6-5.3-.2-2 .1-3.7.6-3.7s.9-.5.9-1.1c0-.5-.4-.8-.9-.5-.5.4-.7-.3-.4-1.4.3-1.1 1-1.7 1.7-1.3.7.4.7.1-.1-.7-.8-.9-.9-1.9-.2-3.2.5-1 .7-2.3.4-2.8-.3-.6-.1-1 .5-1s.9-.4.5-.9c-.3-.5-.1-1.2.5-1.6.6-.4.8-1.1.5-1.6-.4-.5-.1-.9.5-.9.8 0 .8-.6 0-2-.8-1.6-.8-2 .2-1.8.8.2 1.2-.5 1-1.6-.2-1 .1-1.5.6-1.2.5.3.8-.6.6-2-.1-1.5.4-2.8 1.3-3.1 1.2-.5 1.2-.7.2-1.4-1.1-.6-1-.9.4-1.5.9-.3 1.7-1 1.7-1.6 0-.5-.6-.6-1.2-.2-1 .6-1 .5-.1-.7.7-.9 1.4-2.4 1.6-3.5.1-1 .7-2.6 1.2-3.4 1-1.5 1.1-2 1.4-4.1 0-.5.6-.7 1.2-.4.6.4.8 1.4.5 2.2z"/><path d="M357 238c0 .5.5 1 1.1 1 .5 0 .7-.5.4-1-.3-.6-.8-1-1.1-1-.2 0-.4.4-.4 1zM268.4 417.6c-2.1 2.6-6.4 8.5-9.5 13.1l-5.5 8.3-4.6-6.3c-2.4-3.4-5.5-8.1-6.8-10.4-2.3-4.2-2.4-4.3-7.7-4.1-2.9.1-5.3.6-5.3 1.1 0 .5-.7.3-1.6-.4-.9-.7-3.3-1.4-5.3-1.5-2-.1-4.6-.5-5.9-.9-1.7-.6-2.2-.4-2 .6.4 1.9 6 9.9 12.9 18.4 3.1 3.8 7.7 10.1 10.2 13.8l4.6 6.9-.3 20.9c-.2 18.9.2 23.4 1.7 19.6.4-.9.7-.9 1.5.1.7 1.1 1.2 1.1 2.5-.2 1.1-1.2 1.8-1.3 2.3-.5.5.9 1.1.6 2.1-.6 1.2-1.7 1.3-1.7 1.3-.2 0 .9.1 1.7.3 1.8.1 0 2.1.2 4.5.5 4.2.5 5-.2 4.3-4-.1-.5-.3-8.2-.3-17.2l-.1-16.2 5.9-8.6c3.2-4.8 7.8-11.7 10.1-15.4 2.3-3.7 5.4-8.2 7-10.1 1.5-1.8 3.4-4.4 4.1-5.7 1.1-2 1-2.4-.2-2.4-.8 0-1.6-.5-1.8-1.2-.3-.7-1.4-.5-3.4.8-2.6 1.7-2.8 1.7-1.5.1 2-2.5.5-3.4-2-1.1-2.1 1.9-2.2 1.9-1.5-.3.5-1.7.3-2.2-1.1-2.1-1 0-2.5-.2-3.4-.6-1.1-.5-2.7.7-5.5 4zm-3.6 12.4c-.7 1-1.4 1.7-1.7 1.5-.4-.4 1.8-3.5 2.5-3.5.2 0-.1.9-.8 2zm12.2 5.4c0 .2-.7.9-1.5 1.6-1.3 1.1-1.4 1-.9-.4.5-1.4 2.4-2.3 2.4-1.2zm-41.2 2.7c1.9 3 1.1 3.2-1.1.3-1-1.3-1.4-2.4-1-2.4.5 0 1.4.9 2.1 2.1zm11.6 4.4c.9 1.4 1.3 2.5.8 2.5s-1.4-1.1-2-2.5c-.6-1.4-1-2.5-.8-2.5.2 0 1.1 1.1 2 2.5zM361.5 414.7c-2.7.7-11.6 6.6-13.7 8.9-.9 1-2.8 4.6-4.3 7.8-2.2 4.9-2.6 6.9-2.2 11.2.3 2.8 1.2 6.5 2.1 8.1 1.8 3.6 10.6 9.8 16.1 11.3 16.8 4.6 19.6 17 4.2 18.7-3.5.4-5.4-.1-10.9-3.1l-6.6-3.7-3.1 4c-1.7 2.1-3.1 4.3-3.1 4.7 0 .5-.7 2.1-1.5 3.7-1.3 2.5-1.2 2.8.8 4.1 4.1 2.7 16.1 6.7 21.7 7.3 14.7 1.5 31.1-8.2 32.4-19.2.2-2.2.9-5.1 1.4-6.5 1.3-3.4-1.8-13.3-5.2-16.9-2.7-2.8-14.1-8.9-21.8-11.6-6.6-2.4-6.9-5.8-.8-9.7 3.2-2.1 8.7-1.6 13.1 1.1 4.3 2.6 5.3 2.6 4.6.1-.3-1.1-.1-2 .5-2 2.2 0-.9-2.5-6.6-5.1-3.3-1.5-5.6-2.8-4.9-2.9 1.8 0 10 3.7 10.7 4.9 1 1.5 3.7 1.4 3.4-.2-.2-1.3 2-5.9 3.4-6.8 2.7-1.8-4.1-6-12.2-7.6-3.6-.7-15.7-1.1-17.5-.6zm-2 4.3c-2.7 1.2-4.3 1.2-2.5 0 .8-.5 2.2-.9 3-.9 1 0 .8.3-.5.9zm14.3 3.7c-1 .2-2.6.2-3.5 0-1-.3-.2-.5 1.7-.5s2.7.2 1.8.5zm-16.3 7.3c-.3.5-1.1 1-1.6 1-.6 0-.7-.5-.4-1 .3-.6 1.1-1 1.6-1 .6 0 .7.4.4 1zm-8.5 9.9c0 .6-.4 1.3-1 1.6-.5.3-1-.1-1-.9 0-.9.5-1.6 1-1.6.6 0 1 .4 1 .9zm14.5 6.1c.3.5.1 1-.4 1-.6 0-1.1-.5-1.1-1 0-.6.2-1 .4-1 .3 0 .8.4 1.1 1zm14.8 26.8c-.3 1.2-.9 2.2-1.4 2.2-.5 0-.3-1.1.3-2.5 1.3-3 2-2.8 1.1.3zm7.2 12.2c-2.2 2.2-4.3 4-4.8 4-.4 0 1.1-2 3.5-4.4 2.4-2.4 4.5-4.2 4.7-4 .3.3-1.3 2.2-3.4 4.4zm-3.5-2.6c0 .3-.4.8-1 1.1-.5.3-1 .1-1-.4 0-.6.5-1.1 1-1.1.6 0 1 .2 1 .4zM301.4 417.7c-2.7.5-3.9 1.9-9.2 10.5l-4.1 6.6-.6 24.4c-.3 13.4-.6 25.9-.5 27.9 0 2.2-.6 4.4-1.5 5.3-1.5 1.5-1.1 1.6 5.2 1.8 21.6.4 38.5.3 38.9-.4.3-.4 0-.8-.5-.8-.6 0-1.1-.5-1.1-1.1 0-.5.4-.8.9-.5.5.4 1.6.3 2.5 0 1.4-.5 1.4-.8.1-2.7-1.7-2.5-2-7.7-.4-7.7.5 0 .7-.5.4-1-.4-.6-5.4-1-12-.9-6.3 0-11.9-.2-12.4-.5-1-.7-.7-12.3.4-13.4.3-.4 4.3-.7 8.8-.8 4.5-.1 9.1-.2 10.3-.3 1.6-.1 2.1-.8 2.1-3.4 0-1.7-.4-3.8-1-4.5-.7-.8-.5-1.2.7-1.2 2.2 0 1.7-4.9-.7-6.2-1-.5-6.1-1-11.3-1.1-7.7-.1-9.4-.4-9.5-1.7 0-.8-.2-3.1-.3-5-.6-7.1-.7-7.1 11.5-6.9 10.3.2 14.9-.8 12-2.5-1.1-.7-.3-3.7 1.3-4.9.8-.5.7-1-.3-1.6-.7-.5-1-1.4-.7-2 .4-.6 0-1.1-1-1.1-1.4 0-1.4-.3-.4-1.5.7-.9 1-1.8.7-2.1-.7-.7-25.1-1.2-28.3-.7zm2.4 23.3c-.1 3.1-1.8 3.2-1.8.1 0-1.5.8-3.1 1.6-3.1.1 0 .2 1.3.2 3zm.2 5c0 .5-.2 1-.4 1-.3 0-.8-.5-1.1-1-.3-.6-.1-1 .4-1 .6 0 1.1.4 1.1 1zm7.3 3.7c-.7.2-2.1.2-3 0-1-.3-.4-.5 1.2-.5 1.7 0 2.4.2 1.8.5zm-11 5.8c-.7 2.1-1.3 1.9-1.3-.6 0-1.1.4-1.8 1-1.4.5.3.7 1.2.3 2zm-7.8-.5c.3.5.1 1-.4 1-.6 0-1.1-.5-1.1-1 0-.6.2-1 .4-1 .3 0 .8.4 1.1 1zm10.1 16.7c-1.1 1.1-1.9-.6-1.1-2.4.8-1.7.8-1.7 1.2 0 .3 1 .2 2.1-.1 2.4zm-5.9 5.5c-.3.8-.6.5-.6-.6-.1-1.1.2-1.7.5-1.3.3.3.4 1.2.1 1.9zm6.3-1.2c0 .5-.4 1-1 1-.5 0-1-.5-1-1 0-.6.5-1 1-1 .6 0 1 .4 1 1zM323.4 505c-1.2.5-3.2 2.5-4.5 4.6-3.2 5.2-3.3 17-.3 21.1 4 5.4 9.3 3.9 12.8-3.6 1.8-3.9 2.1-5.9 1.6-11.9-.5-7.3-1.7-9.5-5.5-10.5-1.1-.3-3-.2-4.1.3zm4.3 9.6c1.3 2.1 2.3 4.9 2.3 6.1 0 2.8-3.8 9.3-5.5 9.3-4.9 0-7.3-12.4-3.4-17.4 2.6-3.3 3.8-3 6.6 2zm2.3-1.1c0 .5-.5.3-1-.5s-1-2-1-2.5c0-.6.5-.3 1 .5s1 1.9 1 2.5zM376 506c0 1.1 1.4 5 3.2 8.6l3.2 6.6-1.7 4.6c-2.4 6.4-2.4 6.7-.7 6.7.8 0 2-1.2 2.7-2.6 1.5-3 6.3-21.1 6.3-23.5 0-3-2.5-.7-3.8 3.4-.8 2.3-1.7 4.2-2.1 4.2-.4 0-1.8-2.3-3-5-2.4-5.2-4.1-6.5-4.1-3zM237.8 505.7c-2.1.5-2.4 2.8-.6 3.9.6.4 3.1.7 5.4.5l4.3-.2-.2 11.8c-.2 10.3 0 11.8 1.5 12.1 2.1.4 2.8-3.2 2.7-13.8-.1-10.9-.1-11 2-11 1.9 0 3.5-2.3 2.4-3.4-.7-.7-14.9-.6-17.5.1zM267.7 505.7c-.2.4-.3 2.8-.2 5.3.2 2.5.4 8.7.4 13.8.1 5.9.5 9.1 1.1 8.7.6-.3.8-3.2.6-6.5-.5-6.5-.2-6.9 4.5-7.5l3.1-.4-.6 7c-.6 7 .7 9.5 2.1 4.1.9-3.7 1-23.8 0-24.8-1.3-1.3-1.9.4-1.9 5.4.1 4.8 0 5-3.1 5.5-1.8.2-3.3.4-3.5.2-.1-.1-.5-2.6-.8-5.6-.6-5.7-.9-6.6-1.7-5.2zM295.8 506.2c-2.5.9-2.6 1.1-3 13.1-.5 10.2-.3 12.4 1 13.4 2 1.6 8.4 1.7 10 .1 1.6-1.6 1.5-2.8 0-2.8-.7 0-2.9-.5-4.9-1-3.1-.9-3.6-1.4-3.4-3.8.1-2.1.7-2.8 2.5-3.1 4.6-.6 4.9-4.1.4-4.1-2.2 0-2.4-.4-2.4-4.5 0-4.6.4-5 5-4.7 2.2.1 5.1-1.8 4.5-2.9-.7-1.1-5.9-.9-9.7.3zM351.3 505.7c-1.7.3-2.3 1.2-2.4 3.1-.1 5.8-1.1 11.9-2.6 16.5-1 3.2-1.2 5.2-.5 5.9 1.3 1.3 4.2-1.7 4.2-4.5 0-1.2.4-2.8.9-3.6.7-1.1 1-.9 1.6.8.3 1.1 1 2.1 1.5 2.1.4 0 1.7 1.8 2.8 4l1.9 4 2.7-2.1c3.3-2.6 3.2-3.4-.1-7.7-2.1-2.8-2.4-3.8-1.5-5.1 3.9-5.4 4.3-6.9 2.8-10.6-1.4-3.2-1.8-3.5-5.3-3.4-2.1.1-4.8.4-6 .6zm4 6c.6 3.4-.1 5.3-2 5.3-1.4 0-1.4-.6-.3-7.8 0-.1.4-.2.9-.2s1.1 1.2 1.4 2.7zm3.4 2.5c-.3.7-.5.2-.5-1.2s.2-1.9.5-1.3c.2.7.2 1.9 0 2.5z"/></svg>